<?xml version="1.0" standalone="no"?><!DOCTYPE svg PUBLIC "-//W3C//DTD SVG 1.1//EN" "http://www.w3.org/Graphics/SVG/1.1/DTD/svg11.dtd"><svg t="1542619206432" class="icon" style="" viewBox="0 0 1024 1024" version="1.1" xmlns="http://www.w3.org/2000/svg" p-id="2646" xmlns:xlink="http://www.w3.org/1999/xlink" width="200" height="200"><defs><style type="text/css"></style></defs><path d="M865.696 362.7712c-20.192-46.6944-47.6672-87.4112-82.4384-122.1312-34.7584-34.7328-75.392-62.1824-121.888-82.3616C614.8672 138.0864 565.0752 128 512 128c-53.0752 0-102.8672 10.0864-149.376 30.272-46.5024 20.1792-87.1232 47.6288-121.8944 82.3616-34.7648 34.7264-62.2336 75.4368-82.4384 122.1312-20.1984 46.6944-30.2912 96.5504-30.2912 149.5872 0 53.0304 10.0928 102.7648 30.2912 149.2224 20.2048 46.4704 47.68 87.0592 82.4384 121.7856 34.7648 34.7264 75.392 62.176 121.888 82.368C409.1264 885.9072 458.9184 896 512 896c53.0752 0 102.8608-10.0928 149.3696-30.2656 46.496-20.192 87.1296-47.6416 121.888-82.368 34.7584-34.7328 62.2464-75.3216 82.4384-121.7856 20.2048-46.4576 30.304-96.1984 30.304-149.2224C896 459.3152 885.9072 409.4656 865.696 362.7712L865.696 362.7712 865.696 362.7712M512 760.0448c-24.0128 0-43.4688-19.4368-43.4688-43.4304 0-23.9808 19.4624-43.4304 43.4688-43.4304 24.0128 0 43.4624 19.4496 43.4624 43.4304C555.4688 740.608 536.0128 760.0448 512 760.0448L512 760.0448 512 760.0448M555.4688 579.488c0 23.9872-19.456 43.4368-43.4624 43.4368-24.0128 0-43.4688-19.4496-43.4688-43.4368L468.5376 307.3856c0-23.9936 19.4624-43.4368 43.4688-43.4368 24.0128 0 43.4624 19.4432 43.4624 43.4368L555.4688 579.488 555.4688 579.488 555.4688 579.488M555.4688 579.488 555.4688 579.488z" fill="#ff5151" p-id="2647"></path></svg>