<?xml version="1.0" standalone="no"?><!DOCTYPE svg PUBLIC "-//W3C//DTD SVG 1.1//EN" "http://www.w3.org/Graphics/SVG/1.1/DTD/svg11.dtd"><svg t="1550649681766" class="icon" style="" viewBox="0 0 1024 1024" version="1.1" xmlns="http://www.w3.org/2000/svg" p-id="3458" xmlns:xlink="http://www.w3.org/1999/xlink" width="320" height="320"><defs><style type="text/css"></style></defs><path d="M457.38666667 327.68m-217.31555556 0a217.31555555 217.31555555 0 1 0 434.63111111 0 217.31555555 217.31555555 0 1 0-434.63111111 0Z" fill="#FFEABB" p-id="3459"></path><path d="M457.38666667 579.12888889c-67.16416 0-130.30855111-26.15523555-177.80167112-73.64721778C232.09301333 457.98855111 205.93777778 394.84416 205.93777778 327.68s26.15523555-130.30855111 73.64721777-177.80167111C327.07811555 102.38634667 390.22250667 76.23111111 457.38666667 76.23111111s130.30855111 26.15523555 177.80167111 73.64721778C682.68032 197.37144889 708.83555555 260.51584 708.83555555 327.68s-26.15523555 130.30855111-73.64721777 177.80167111S524.55082667 579.12888889 457.38666667 579.12888889z m0-434.63111111c-101.00736 0-183.18222222 82.17486222-183.18222222 183.18222222s82.17486222 183.18222222 183.18222222 183.18222222c101.00622222 0 183.18222222-82.17486222 183.18222222-183.18222222s-82.176-183.18222222-183.18222222-183.18222222z" fill="#F9C73D" p-id="3460"></path><path d="M100.16426667 887.81710222c-1.98883555 0-4.00384-0.17408-6.02908445-0.53589333-18.55943111-3.30752-30.92138667-21.03409778-27.61386667-39.59352889 16.52736-92.71523555 65.43928889-177.44896 137.7234489-238.58972445C277.40273778 547.21649778 370.53667555 513.13777778 466.48888889 513.13777778c98.87402667 0 194.16177778 35.93784889 268.30848 101.19168 14.15168 12.45411555 15.52725333 34.02183111 3.07313778 48.17351111-12.45184 14.15054222-34.02183111 15.52725333-48.17351112 3.07313778C628.02147555 611.29728 548.75022222 581.40444445 466.48888889 581.40444445c-164.07324445 0-304.01877333 117.02613333-332.76131556 278.26289777-2.94684445 16.53304889-17.33745778 28.14976-33.56330666 28.14976zM906.80888889 763.44888889h-79.64444444v-79.64444444c0-18.77333333-15.36-34.13333333-34.13333334-34.13333334s-34.13333333 15.36-34.13333333 34.13333334v79.64444444h-79.64444445c-18.77333333 0-34.13333333 15.36-34.13333333 34.13333333s15.36 34.13333333 34.13333333 34.13333333h79.64444445v79.64444445c0 18.77333333 15.36 34.13333333 34.13333333 34.13333333s34.13333333-15.36 34.13333334-34.13333333v-79.64444445h79.64444444c18.77333333 0 34.13333333-15.36 34.13333333-34.13333333s-15.36-34.13333333-34.13333333-34.13333333z" fill="#F9C73D" p-id="3461"></path></svg>