<?xml version="1.0" standalone="no"?><!DOCTYPE svg PUBLIC "-//W3C//DTD SVG 1.1//EN" "http://www.w3.org/Graphics/SVG/1.1/DTD/svg11.dtd"><svg t="1550649605032" class="icon" style="" viewBox="0 0 1024 1024" version="1.1" xmlns="http://www.w3.org/2000/svg" p-id="3337" xmlns:xlink="http://www.w3.org/1999/xlink" width="320" height="320"><defs><style type="text/css"></style></defs><path d="M728.5 873.8H322.9c-2.9 0-5.2-2.3-5.2-5.2V242.2c0-2.9 2.3-5.2 5.2-5.2h478.5c2.9 0 5.2 2.3 5.2 5.2V794" fill="#FFEBF5" p-id="3338"></path><path d="M548.2 957.5H372.6c-115.2 0-208.9-93.7-208.9-208.9V321.7c0-91.2 58.5-171.2 145.6-199.1 14.8-4.7 30.4 3.4 35.1 18.1 4.7 14.7-3.4 30.4-18.1 35.1-63.8 20.4-106.8 79.1-106.8 145.9v426.8c0 84.4 68.7 153.1 153.1 153.1h175.6c15.4 0 27.9 12.5 27.9 27.9s-12.5 28-27.9 28zM834.4 750.2c-15.4 0-27.9-12.5-27.9-27.9V321.7c0-73-52-136.1-123.7-150.2-15.1-3-25-17.7-22-32.8 3-15.1 17.7-25 32.8-22 97.8 19.2 168.8 105.5 168.8 205.1v400.5c-0.1 15.4-12.6 27.9-28 27.9zM402.9 247.2c-15.4 0-27.9-12.5-27.9-27.9V91.5c0-15.4 12.5-27.9 27.9-27.9s27.9 12.5 27.9 27.9v127.8c0 15.4-12.5 27.9-27.9 27.9z" fill="#FE9BC2" p-id="3339"></path><path d="M562.1 183.3H434.3c-15.4 0-27.9-12.5-27.9-27.9s12.5-27.9 27.9-27.9h127.8c15.4 0 27.9 12.5 27.9 27.9s-12.5 27.9-27.9 27.9z" fill="#FE9BC2" p-id="3340"></path><path d="M600.1 247.2c-15.4 0-27.9-12.5-27.9-27.9V91.5c0-15.4 12.5-27.9 27.9-27.9 15.4 0 27.9 12.5 27.9 27.9v127.8c0 15.4-12.5 27.9-27.9 27.9zM695.4 408.3H327.3c-15.4 0-27.9-12.5-27.9-27.9s12.5-27.9 27.9-27.9h368.1c15.4 0 27.9 12.5 27.9 27.9s-12.5 27.9-27.9 27.9zM562.1 577.2H327.3c-15.4 0-27.9-12.5-27.9-27.9s12.5-27.9 27.9-27.9h234.8c15.4 0 27.9 12.5 27.9 27.9s-12.5 27.9-27.9 27.9zM513 728.3H327.3c-15.4 0-27.9-12.5-27.9-27.9s12.5-27.9 27.9-27.9H513c15.4 0 27.9 12.5 27.9 27.9s-12.5 27.9-27.9 27.9zM646.1 957.5c-3.5 0-7-0.6-10.3-2-10.7-4.2-17.7-14.5-17.7-26V729.4c0-15.4 12.5-27.9 27.9-27.9h188.3c11.2 0 21.2 6.6 25.6 16.9 4.4 10.2 2.3 22.1-5.3 30.2L666.4 948.7c-5.4 5.7-12.7 8.8-20.3 8.8zM674 757.4v101.7l95.7-101.7H674z" fill="#FE9BC2" p-id="3341"></path></svg>