<?xml version="1.0" standalone="no"?><!DOCTYPE svg PUBLIC "-//W3C//DTD SVG 1.1//EN" "http://www.w3.org/Graphics/SVG/1.1/DTD/svg11.dtd"><svg t="1550733750936" class="icon" style="" viewBox="0 0 1024 1024" version="1.1" xmlns="http://www.w3.org/2000/svg" p-id="3571" xmlns:xlink="http://www.w3.org/1999/xlink" width="320" height="320"><defs><style type="text/css"></style></defs><path d="M262.99999971 284.75h237.75000029v71.25000029H332v68.24999971h168.75v195.00000029H332v83.25h168.75v63.74999971H262.99999971V547.25000029h172.50000029v-59.25000058h-172.50000029zM767.75000029 284.75H530v71.25000029h168.75v68.24999971H530v195.00000029h168.75v83.25H530v63.74999971h237.75000029V547.25000029h-172.50000029v-59.25000058h172.50000029z" fill="#C42B25" p-id="3572"></path><path d="M78.49999971 512c0-248.24999971 195.75-450 436.5-450 241.49999971 0 436.5 201.75000029 436.5 450s-195.75 450-436.5 450S78.49999971 760.24999971 78.49999971 512m436.5 392.24999971c209.99999971 0 380.25-175.5 380.25-392.24999971S725.00000029 119.75000029 514.99999971 119.75000029C305 119.75000029 134.74999971 295.25000029 134.74999971 512s170.25000029 392.24999971 380.25 392.24999971z" fill="#C42B25" p-id="3573"></path></svg>