<?xml version="1.0" standalone="no"?><!DOCTYPE svg PUBLIC "-//W3C//DTD SVG 1.1//EN" "http://www.w3.org/Graphics/SVG/1.1/DTD/svg11.dtd"><svg t="1550733778564" class="icon" style="" viewBox="0 0 1024 1024" version="1.1" xmlns="http://www.w3.org/2000/svg" p-id="4142" xmlns:xlink="http://www.w3.org/1999/xlink" width="320" height="320"><defs><style type="text/css"></style></defs><path d="M511.52 427.52c-35.52 71.04-75.84 140.64-120 206.88-113.28 6.72-224.16 24-324.96 51.36 144-157.44 263.04-362.4 325.92-565.92 27.36 101.28 68.16 205.92 119.04 307.68z" fill="#BD0016" p-id="4143"></path><path d="M391.52 634.4c79.68-4.8 160.32-4.8 239.52 0.48 63.36 95.52 134.4 183.36 209.28 256.8-208.8-47.04-446.88-48-655.68-0.96v-0.48l3.36-3.36 3.36-3.36 3.36-3.36 3.36-3.36 3.36-3.36 3.36-3.84 3.36-3.36 3.36-3.36 3.36-3.84 3.36-3.36 3.36-3.84 3.36-3.84 3.36-3.84 3.36-3.84 3.36-3.84 3.36-3.84 3.36-3.84 3.36-3.84 3.36-3.84 3.36-3.84 3.36-3.84 3.36-3.84 3.36-3.84 3.36-3.84c44.64-51.84 86.88-108.48 126.24-167.52z" fill="#730000" p-id="4144"></path><path d="M631.04 634.88c-44.16-66.24-84.48-136.32-120-207.36 50.88-101.76 91.2-206.4 117.6-307.2 64.8 204 183.84 410.88 329.28 566.88v0.48c-100.8-27.84-212.64-45.12-326.88-52.8z" fill="#E50020" p-id="4145"></path><path d="M631.04 634.88c114.24 7.2 225.6 24.96 327.36 52.32l-118.08 204.48c-74.88-73.44-145.92-161.28-209.28-256.8z" fill="#BD0016" p-id="4146"></path><path d="M391.52 634.4c-62.88 94.56-132.96 181.92-206.88 255.84L66.56 685.76c100.8-27.36 211.2-44.16 324.96-51.36z" fill="#E50020" p-id="4147"></path><path d="M629.12 120.32c-26.4 100.8-66.72 205.44-117.6 307.2-50.4-101.76-91.2-206.4-118.56-307.2h236.16z" fill="#730000" p-id="4148"></path></svg>