<?xml version="1.0" standalone="no"?><!DOCTYPE svg PUBLIC "-//W3C//DTD SVG 1.1//EN" "http://www.w3.org/Graphics/SVG/1.1/DTD/svg11.dtd"><svg t="1550733740763" class="icon" style="" viewBox="0 0 1024 1024" version="1.1" xmlns="http://www.w3.org/2000/svg" p-id="3343" xmlns:xlink="http://www.w3.org/1999/xlink" width="320" height="320"><defs><style type="text/css"></style></defs><path d="M62.00043945 509.08247334a447.08159443 447.08159443 0 1 0 894.16494669 0A447.08159443 447.08159443 0 1 0 62.00043945 509.08247334z" fill="#6A1684" p-id="3344"></path><path d="M143.79401182 349.60860547h163.45355185s30.82584903 0 36.64947568 8.72928896h-30.25631865v9.31112315l46.53013096 0.56953125s7.56737578 5.2426705 7.5673749 9.31112315l-54.09750586 0.58007812v8.71874121h59.92025449s6.98553984 3.49804336 5.25321739 11.05399336H192.10128857v9.89208017l189.59659278-0.58183593s1.16279209 7.56737578 1.16279121 9.89208017H192.10128857v9.8806544l191.34034102-0.57040928s1.16191318 5.81220175-1.74374824 9.88065439l-189.59659278 1.75517403v9.31024511l186.71290401-1.17333896s0 7.56737578-4.67226123 9.89120127l-182.04064278 1.16279209v8.71874121l176.23986768-1.16279209s-0.60380771 9.31024512-6.9960876 11.05399336l-169.24378008 0.58095703v9.31024424l155.29379414-1.16191318s-3.48661758 11.63494951-27.34977831 10.46161142l-29.06012725-0.57041016v8.7187421l47.10053936 0.58007724s19.78240254 0 22.68894287 8.13778506l-69.80090801 1.75429512v8.72928808h82.00626679s7.56737578 5.81220175 7.56737578 9.31112403l-188.44610537 1.16191318v10.47303633l192.51367998-1.73232247s7.56737578 5.21981895 7.56737491 10.46161143l-200.06962911 1.16279122v8.72928896h202.98671631s2.31327862 2.91708721 1.16191319 8.14745214l-204.16005528 1.73232335v8.71874121h204.16093419s1.74286934 5.23036583 0 9.29881934l-204.16093419 1.17421699v9.31024512h202.41630703s1.74374824 5.81220175-2.90566142 10.47303633H192.10128857v9.29881933l195.42021944-0.59238193s-0.57040928 9.3216709-4.66083545 9.90350596H313.6398418v9.89120126l59.92025448-0.59238281s-4.07987842 9.31024512-8.13690615 10.48446299l-51.78334833 0.59238193v9.88065439l34.91715409-0.58183505s-5.25321739 11.04344648-51.17954062 9.31112314l-153.57289658-0.59238194V349.60860547h-0.01142578z" fill="#FBE900" p-id="3345"></path><path d="M409.61806894 556.68662597s-5.21981895-43.0435125 43.64644132-51.19096552c0 0 90.72412998-18.60994248 93.07168681 37.81138887l1.73144355 104.69521055 5.82362667 18.04041211-46.52925117 1.16279208-2.91796612-16.28611699s-23.27077792 24.43357002-61.0821668 15.69373418c0 0-40.70738232-2.90654033-40.70738232-47.70434795 0 0-1.74286934-29.65251006 26.17731826-40.12554639 0 0 45.36733887-12.80916739 59.32787168-12.80916738 0 0 30.82584903-5.2417916 4.64940967-26.76882129 0 0-38.39322393-8.71786231-39.54459023 16.87762002l-43.64644131 0.60380771z m152.39955762-48.86713915h44.21597256l-0.60380771 16.87849893s24.4449958-25.01452617 43.05405937-22.70124757c0 0 47.13393867-9.29881933 56.43363604 45.97114659l1.1513663 118.64519648h-43.61304286l-0.58183594-107.02079385s-12.21678457-30.82584903-43.61216396-11.04256758c0 0-13.98338437 5.23036583-11.64725421 41.28746046l0.58183507 76.77590097-44.19399991-0.57040927-1.18476475-158.22230625z m159.94320381-64.56878526l40.74077989 0.58007813 2.31327948 120.99275244 49.44721729-64.57054219h50.59858359l-45.94917392 63.40775098L874.37269268 664.86933301l-51.18041866 1.74374824-35.48668359-65.14007256-21.52702969 29.09352569 0.58095616 35.48756338h-43.63501641l-1.16279121-222.8033962zM503.84112119 590.42956221s-0.57040928 16.86619424 0 20.35369072c0 0-5.23124473 16.86619424-19.76130879 19.78416035 0 0-27.94303916 16.85388955-37.25328427-4.65028857 0 0-4.05702685-12.80916739 9.31024511-18.0395332 0.01142578-0.01142578 45.39019043-11.6472542 47.70434795-17.4480293z" fill="#C8C9CA" p-id="3346"></path></svg>