<?xml version="1.0" standalone="no"?><!DOCTYPE svg PUBLIC "-//W3C//DTD SVG 1.1//EN" "http://www.w3.org/Graphics/SVG/1.1/DTD/svg11.dtd"><svg t="1550733783228" class="icon" style="" viewBox="0 0 1024 1024" version="1.1" xmlns="http://www.w3.org/2000/svg" p-id="4259" xmlns:xlink="http://www.w3.org/1999/xlink" width="320" height="320"><defs><style type="text/css"></style></defs><path d="M926.72 248l-31.68-40.32s-123.36 20.16-120.96-48.96c0 0 8.64-51.84-80.64-31.68 0 0-21.6-20.16-20.16-31.68 0 0 6.24-30.24-90.72-13.92 0 0-143.52 17.76-300.96 197.76 0 0-158.4 129.6-158.4-3.84 0 0-86.88 88.32-40.32 158.88 0 0 52.8 74.4 153.6 13.92 0 0-31.68 244.32 129.6 371.52 0 0 168.48 156 362.88 100.8 0 0 162.24-34.08 224.16-197.76 0 0-28.8 28.8-41.28 26.4 0 0 44.16-52.8 46.56-75.36 0 0-1.44-31.2-26.4 17.76 0 0 6.24-30.24-11.52-14.88 0 0-85.44 99.36-121.92 104.64 0 0-270.72 159.84-394.08-162.24 0 0-52.8-152.64 72-266.88 124.8-114.72 246.72-103.2 359.04-20.16 0 0 56.64-64.32 80.64-51.84-0.48-0.48 21.12-13.44 10.56-32.16z" fill="#E50012" p-id="4260"></path><path d="M549.44 441.92l267.84-1.44v204.48h-267.84V441.92z" fill="#E50012" p-id="4261"></path></svg>