<?xml version="1.0" standalone="no"?><!DOCTYPE svg PUBLIC "-//W3C//DTD SVG 1.1//EN" "http://www.w3.org/Graphics/SVG/1.1/DTD/svg11.dtd"><svg t="1550562795763" class="icon" style="" viewBox="0 0 1024 1024" version="1.1" xmlns="http://www.w3.org/2000/svg" p-id="4114" xmlns:xlink="http://www.w3.org/1999/xlink" width="320" height="320"><defs><style type="text/css"></style></defs><path d="M950.75 219.5C932.75 140.75 869.75 82.25 786.5 71c-4.5 0-6.75-2.25-11.25-4.5H246.5L219.5 73.25C138.5 91.25 82.25 154.25 68.75 235.25c0 4.5-2.25 6.75-4.5 11.25v533.25c2.25 6.75 4.5 13.5 4.5 22.5 18 81 78.75 139.5 162 153 4.5 0 6.75 2.25 9 4.5h537.75c15.75-4.5 31.5-6.75 47.25-13.5 72-27 114.75-78.75 128.25-155.25 0-2.25 2.25-6.75 4.5-9V246.5L950.75 219.5zM147.5 219.5h144c-2.25-22.5 11.25-22.5 27-20.25h33.75c2.25 6.75 2.25 13.5 2.25 20.25h144v31.5H172.25c-29.25 0-29.25 0-24.75-31.5z m11.25 137.25V269h328.5V354.5h-135v94.5c0 18-9 31.5-27 36-18 4.5-38.25 6.75-60.75 9v-20.25c27-11.25 27-11.25 27-42.75v-74.25H158.75z m92.25 18c-11.25 45-33.75 78.75-67.5 105.75-6.75 6.75-22.5 2.25-33.75 2.25 11.25-20.25 20.25-38.25 29.25-56.25 2.25-4.5 2.25-9 4.5-13.5 4.5-13.5 4.5-36 11.25-38.25 15.75-4.5 36 0 56.25 0z m-94.5 220.5c6.75-15.75 18-31.5 22.5-49.5 2.25-9 6.75-13.5 15.75-13.5H242c-4.5 13.5-9 24.75-11.25 38.25h54V602c-20.25 0-38.25-2.25-58.5 0-4.5 0-9 0-13.5 2.25h-4.5c-4.5 0-6.75 2.25-11.25 2.25-15.75 4.5-31.5 11.25-47.25 15.75l-4.5-4.5c2.25-9 6.75-13.5 11.25-22.5z m112.5 198c-27 9-51.75 20.25-81 31.5v-105.75h-45c2.25-11.25 4.5-22.5 6.75-29.25l2.25-2.25s2.25 0 2.25-2.25c9-2.25 20.25 0 31.5 0v-22.5c-9 0-18-2.25-29.25-2.25v-31.5h117v29.25c-9 0-18 2.25-27 2.25v22.5c13.5 0 24.75 2.25 38.25 2.25V714.5H248.75v56.25c11.25-4.5 24.75-6.75 36-11.25 4.5 18 2.25 27-15.75 33.75z m229.5-180h-112.5v18h112.5v31.5h-112.5c4.5 20.25 9 40.5 11.25 58.5 2.25 0 4.5 2.25 4.5 2.25 9-11.25 15.75-22.5 24.75-33.75 2.25-4.5 6.75-9 11.25-11.25 15.75-2.25 31.5 0 51.75 0-13.5 38.25-47.25 58.5-72 83.25 15.75 29.25 42.75 42.75 74.25 45 4.5 20.25 4.5 20.25-15.75 20.25-36-2.25-65.25-18-90-40.5-27 11.25-54 22.5-83.25 36 0-11.25 0-18-2.25-20.25 20.25-13.5 38.25-22.5 56.25-33.75 9-4.5 6.75-11.25 4.5-18-9-22.5-18-47.25-27-72-2.25-9-6.75-13.5-18-13.5-27 0-27 0-22.5-29.25 4.5 0 9 0 15.75-2.25h15.75c2.25-27-20.25-11.25-31.5-22.5 0-6.75 2.25-15.75 2.25-27 9 0 18 0 27-2.25V534.5h60.75v45h24.75c0-11.25 2.25-20.25 2.25-31.5h60.75c0 11.25 2.25 20.25 2.25 31.5 9 0 18 0 27 2.25v31.5z m-49.5-144c-18-24.75-33.75-49.5-49.5-74.25-2.25-4.5-2.25-11.25-6.75-20.25h56.25s2.25 0 2.25 2.25c0 0 2.25 0 2.25 2.25 0 0 2.25 0 2.25 2.25 2.25 2.25 4.5 4.5 4.5 6.75 6.75 33.75 15.75 67.5 38.25 96.75-20.25-2.25-38.25 2.25-49.5-15.75z m78.75 150.75c-2.25-9-2.25-15.75 9-22.5 27-13.5 40.5-36 49.5-65.25h56.25v15.75c4.5 0 6.75 2.25 11.25 2.25h182.25c15.75 0 20.25 4.5 20.25 20.25v126c0 42.75-15.75 58.5-56.25 60.75h-31.5c-2.25-6.75-2.25-13.5 0-15.75 2.25-2.25 4.5-4.5 11.25-6.75 13.5-2.25 18-15.75 18-29.25v-123.75h-162c-9 0-20.25 4.5-27 9-15.75 11.25-29.25 18-45 22.5-13.5 6.75-27 6.75-36 6.75z m-4.5-137.25c24.75-33.75 38.25-65.25 45-101.25 0-2.25 6.75-6.75 9-6.75h51.75c-11.25 45-33.75 78.75-65.25 105.75-9 4.5-22.5 0-40.5 2.25z m249.75-110.25H827c2.25 0 6.75 4.5 6.75 6.75 6.75 36 20.25 67.5 42.75 99-20.25 4.5-38.25 2.25-51.75-13.5-24.75-24.75-45-54-51.75-92.25z m81 452.25h-247.5c-33.75 0-42.75-6.75-42.75-42.75v-162h184.5v108H624.5v51.75c0 13.5 11.25 13.5 22.5 13.5H874.25c9 29.25 6.75 31.5-20.25 31.5z m0-573.75h-202.5c-11.25 0-18 2.25-22.5 13.5-4.5 9-9 18-13.5 29.25-4.5 9-9 20.25-13.5 29.25h69.75V266.75h58.5v56.25h112.5c29.25 0 29.25 0 22.5 31.5h-132.75v72c0 49.5-13.5 63-63 63h-24.75c-2.25-11.25-6.75-18 9-22.5 9-2.25 18-13.5 18-22.5 2.25-29.25 0-58.5 0-90H534.5c15.75-36 31.5-69.75 49.5-105.75h-58.5V217.25h60.75c4.5 0 13.5 0 13.5-4.5 6.75-20.25 22.5-15.75 38.25-15.75h20.25c-2.25 6.75-4.5 13.5-4.5 20.25h222.75c4.5 31.5 4.5 33.75-22.5 33.75z" fill="#EA2328" p-id="4115"></path><path d="M624.5 651.5h63v45H624.5zM215 300.5h218.25v22.5H215z" fill="#EA2328" p-id="4116"></path></svg>