<?xml version="1.0" standalone="no"?><!DOCTYPE svg PUBLIC "-//W3C//DTD SVG 1.1//EN" "http://www.w3.org/Graphics/SVG/1.1/DTD/svg11.dtd"><svg t="1550733791565" class="icon" style="" viewBox="0 0 1024 1024" version="1.1" xmlns="http://www.w3.org/2000/svg" p-id="4484" xmlns:xlink="http://www.w3.org/1999/xlink" width="320" height="320"><defs><style type="text/css"></style></defs><path d="M907.8425 540.2825H745.60625s-11.655 0-16.515 1.98c-2.91375 0.99-12.63375 8.92125-12.63375 8.92125L516.3425 755.09a10.04625 10.04625 0 0 1-12.63375 0l-212.7375-216.79875c-2.91375-2.97-2.91375-8.91 0-11.89125L504.6875 309.6125a7.2 7.2 0 0 1 11.66625 0l187.4925 191.05875s7.7625 8.91 16.515 11.88c8.74125 1.99125 21.375-8.91 21.375-8.91l86.4675-90.09L575.59625 158.165c-53.4375-54.45-111.72375-49.5-135.03375-46.53C237.53375 146.285 90.83375 323.48375 90.83375 534.3425 90.83375 771.92 284.165 962 510.515 962c222.4575 0 408.9825-182.14875 419.67-411.8175 0-2.97 0.9675-4.93875-4.86-8.91-5.8275-3.96-17.4825-0.99-17.4825-0.99zM642.62375 151.235L864.125 374.96375l61.2-60.39s5.8275-9.9 7.7625-18.81c0.9675-4.95-8.74125-12.87-8.74125-12.87L789.32375 144.305c-127.27125-129.67875-269.1-67.30875-269.1-67.30875s59.265 0.97875 122.4 74.23875z" fill="#053D8F" p-id="4485"></path></svg>