<?xml version="1.0" standalone="no"?><!DOCTYPE svg PUBLIC "-//W3C//DTD SVG 1.1//EN" "http://www.w3.org/Graphics/SVG/1.1/DTD/svg11.dtd"><svg t="1550733706628" class="icon" style="" viewBox="0 0 1024 1024" version="1.1" xmlns="http://www.w3.org/2000/svg" p-id="2885" xmlns:xlink="http://www.w3.org/1999/xlink" width="320" height="320"><defs><style type="text/css"></style></defs><path d="M782.77697232 760.86438571c-53.216283 0-109.56293674 6.26073904-162.77921973 6.26073904-34.4340659 153.38811119-331.81917972 109.56293674-297.38511504-84.51998061 15.65184758-112.69330625 175.30069902-162.77922096 269.21178817-78.25924035 18.78221831 25.04295734 31.30369638 43.82517445 40.69480494 93.91108915 50.08591348 0 109.56293674-6.26073904 159.64885021-6.26073904 0-247.29920034-278.60289673-372.51398466-485.20729091-253.55994059-203.47402589 112.69330625-178.43106853 466.42507381 34.4340659 550.94505442v6.26073903c-112.69330625 0-244.16883083-90.78071964-269.21178818-197.21328563v-569.72727153c90.78071964-65.73776228 194.08291613-137.73626361 281.73326625-197.21328685 6.26073904 0 6.26073904 6.26073904 9.39110856 6.26073903-6.26073904 84.51997938 0 228.51698203 6.26073902 331.81917973 59.47702325-53.216283 93.91108915-112.69330625 194.08291734-134.60589287 65.73776228-15.65184758 125.21478554-6.26073904 162.77922096 9.39110855 287.99400528 100.17182819 306.77622359 472.68581285 59.47702204 601.0309679-6.26073904 0-18.78221831 9.39110855-25.04295614 15.65184759 0 0 6.26073904-9.39110855 9.39110855-18.78221711-3.13036951-25.04295734 3.13036951-56.34665373 12.52147806-81.38960986z" fill="#1D2088" p-id="2886"></path></svg>