<?xml version="1.0" standalone="no"?><!DOCTYPE svg PUBLIC "-//W3C//DTD SVG 1.1//EN" "http://www.w3.org/Graphics/SVG/1.1/DTD/svg11.dtd"><svg t="1550649600343" class="icon" style="" viewBox="0 0 1024 1024" version="1.1" xmlns="http://www.w3.org/2000/svg" p-id="3223" xmlns:xlink="http://www.w3.org/1999/xlink" width="320" height="320"><defs><style type="text/css"></style></defs><path d="M153.6 102.4h409.6l204.8 204.8v614.4H153.6z" fill="#DBEFDC" p-id="3224"></path><path d="M563.2 102.4l204.8 204.8h-204.8zM307.2 358.4h307.2v51.2H307.2V358.4z m0 153.6h153.6v51.2H307.2v-51.2z m0 153.6h153.6v51.2H307.2v-51.2zM512 563.2c0-25.6 25.6-51.2 51.2-51.2h307.2c30.72 0 51.2 25.6 51.2 51.2v204.8c0 25.6-25.6 51.2-51.2 51.2h-307.2c-30.72 0-51.2-25.6-51.2-51.2v-204.8z m102.4 307.2h204.8v51.2h-204.8v-51.2z m51.2-51.2h102.4v51.2h-102.4v-51.2z" fill="#4CAF50" p-id="3225"></path><path d="M563.2 563.2h307.2v204.8h-307.2z" fill="#DBEFDC" p-id="3226"></path></svg>