<?xml version="1.0" standalone="no"?><!DOCTYPE svg PUBLIC "-//W3C//DTD SVG 1.1//EN" "http://www.w3.org/Graphics/SVG/1.1/DTD/svg11.dtd"><svg t="1550733719795" class="icon" style="" viewBox="0 0 1325 1024" version="1.1" xmlns="http://www.w3.org/2000/svg" p-id="3003" xmlns:xlink="http://www.w3.org/1999/xlink" width="414.0625" height="320"><defs><style type="text/css"></style></defs><path d="M1215.61962543 572.31025404c-100.51708882-131.58600735-385.62010575-162.65492586-385.62010698-162.6549271l113.31017357-69.4481703L691.10317785 201.31081482 438.89666243 327.41407188l202.8617619 113.31017359c328.96502018-5.48275026 423.99935874 169.96526034 423.99935874 169.96526034 82.24125506 257.68926564-391.10285722 275.96509942-391.10285721 275.96509944C400.51740945 915.89594075 274.41415237 678.31009312 274.41415237 678.31009312l-164.48251011 5.48275024c195.55142861 389.27527299 897.34346979 219.31001263 897.34347101 219.31001386 367.34427197-111.48259055 208.34451214-330.79260318 208.34451214-330.79260318z m-524.51644758-162.6549271l-113.31017357-56.65508678 107.8274233-74.93092055 113.31017236 62.13783703-107.82742209 69.4481703z" fill="#1D2088" p-id="3004"></path><path d="M711.20659463 77.03514075c-184.58592812-12.79308353-544.61986558 5.48275026-588.48186762 224.79276289-38.37925179 175.44801059 228.44793015 275.96509942 416.68902426 294.24093442-38.37925179 25.58616827-76.75850479 43.86200204-113.31017355 69.44817153 87.7240053 49.34475351 169.96526034 100.51708882 252.20651538 144.37909207l228.44793014-131.58600854-228.44793014-118.79292383c-43.86200204-5.48275026-87.7240053 5.48275026-113.31017356 5.48275025-126.1032571 0-310.68918518-137.0687576-259.51684867-263.1720159 95.03433855-268.65476618 720.06787618-232.10309738 784.03329746 38.379253h177.27559361c-82.24125506-206.5169291-378.30977248-250.37893116-555.58536731-263.17201589z m-25.58616705 531.82678204l113.31017236 62.13783705-120.62050684 62.13783703-107.82742331-62.13783703 115.13775779-62.13783705z" fill="#5AA572" p-id="3005"></path></svg>