<?xml version="1.0" standalone="no"?><!DOCTYPE svg PUBLIC "-//W3C//DTD SVG 1.1//EN" "http://www.w3.org/Graphics/SVG/1.1/DTD/svg11.dtd"><svg t="1550733770836" class="icon" style="" viewBox="0 0 1077 1024" version="1.1" xmlns="http://www.w3.org/2000/svg" p-id="3916" xmlns:xlink="http://www.w3.org/1999/xlink" width="336.5625" height="320"><defs><style type="text/css"></style></defs><path d="M687.31052627 62l-46.23157881 40.97368388 139.78421015 169.24736866 8.43157882 11.46315762 6.25263222 11.55789492 3.12631523 6.34736865 1.04210596 5.16315762 1.13684151 6.48947373v5.11578984l-1.13684151 12.64736865-3.03157968 11.6052627-5.3052627 11.55789492-7.34210508 11.51052627-202.92631611 233.24210507-5.25789492 4.21578985-2.03684151 5.3052627-6.34736865 7.34210508-5.16315762 9.56842119-3.12631611 9.42631611-4.26315762 9.42631611-2.13157968 9.47368389-1.08947373 10.51578897-2.13157882 9.37894745v10.5631585l2.13157882 10.46842119 1.08947373 11.6052627 3.17368476 9.42631611 4.26315761 10.56315762 4.0736839 10.42105253 5.35263222 10.56315763 4.16842119 5.16315849 2.03684151 4.31052627 148.21578984 180.71052627H957.26315761l-135.37894745-145.04210507-6.39473643-9.37894747-1.04210508-4.21578984-1.13684238-4.26315762v-11.46315762l1.13684238-4.26315849 1.04210508-4.21578896 2.1315788-5.25789493 4.26315763-6.34736866 5.25789492-9.3315788 6.25263135-7.38947373 135.52105341-157.68947373 9.56842032-11.55789492 7.2947373-10.46842119 5.25789492-10.56315763 6.2052627-10.42105253 4.21578984-10.56315762 3.17368389-10.46842119 2.1315788-10.51578984v-30.45789492l-2.1315788-10.61052627-3.17368389-9.47368389-4.21578984-10.46842119-6.2052627-10.56315762-5.25789492-8.38421103-7.2947373-10.46842031z" fill="#006138" p-id="3917"></path><path d="M360.42105254 314.14210508l1.08947373-16.7684212 3.12631611-17.90526269 1.1368415-8.33684238 3.12631612-9.47368389 6.34736865-15.77368476 7.29473643-14.68421016 4.16842119-7.34210508 4.26315761-7.38947373 10.51578985-12.6 9.52105254-13.73684238 13.54736865-10.51578897 12.6-9.42631611 14.73157881-9.42631611 14.7315788-7.38947374 15.72631612-5.25789404 9.52105254-3.07894745 8.33684238-1.13684239 8.43157881-2.03684238 9.47368389-1.1368415h8.38421016l9.47368476-1.98947373 15.67894746 1.98947373 15.77368388 3.17368388 15.8684212 2.17894747 14.63684239 6.20526269 7.43684149 3.26842119 7.38947374 3.03157881 14.63684238 7.38947372 13.64210508 8.47894747 11.7 10.46842118 9.3315788 11.65263135 6.3 5.21052628 4.1684212 6.25263222 10.61052627 11.65263135 7.34210508 14.58947373 7.2947373 14.73157881 1.08947373 7.2947373 3.07894746 7.38947286 4.26315762 15.77368476 3.12631611 15.82105254h-101.84210595l-71.52631524-71.43157881-92.51052627 90.28421016 92.51052627 90.42631611 71.52631524-71.43157881h101.84210595L706.21052627 350.94736865l-4.26315762 14.73157881-3.07894746 7.29473642-1.08947373 7.38947373-7.2947373 14.73157882-7.34210508 14.68421103-10.61052627 11.55789492-10.4684212 11.6052627-9.3315788 11.55789492-11.7 10.46842119-7.38947373 4.21578897-6.25263135 4.26315849-7.34210508 4.26315762-7.2947373 3.12631611-14.82631523 6.3-14.63684239 5.21052627-15.86842119 4.16842119-15.77368389 2.08421016-15.67894746 1.04210508-17.85789492-1.04210508-17.9052627-3.07894747-8.33684238-1.08947372-9.52105254-3.17368389-15.72631611-6.20526357-14.73157881-7.34210508-7.34210508-4.26315762-7.38947373-4.26315849-12.6-10.56315763-13.54736865-10.42105253-9.52105254-12.6-10.51578985-13.73684239-8.4315788-14.63684149-7.29473643-13.59473731-6.34736865-16.86315762-3.12631612-8.43157881-1.13684149-8.33684238-2.13157882-9.47368388-0.9947373-8.47894747-1.08947373-8.43157881z" fill="#D0161F" p-id="3918"></path><path d="M382.54210508 62L91.32105253 403.52631612l-7.38947372 10.46842031-7.15263134 8.38421103-4.31052628 10.56315762-4.21578984 10.46842119-3.07894747 9.47368389L62 463.49473643v30.45789492l3.17368388 10.51578984 3.07894747 10.46842119 4.21578984 10.56315762 5.25789493 10.42105253 6.20526269 10.56315763 7.38947372 10.46842119 8.52631612 11.55789492 134.47894747 157.68947373 7.29473642 7.38947373 6.3947373 9.3315788 4.21578897 6.34736866 1.04210507 5.25789493 2.03684239 4.21578896 1.08947373 4.26315849v11.46315762l-1.08947373 4.26315762-2.03684239 4.21578984-5.25789404 9.37894747-136.65789492 145.04210507h234.28421016l147.22105254-180.71052627 3.26842119-4.31052627 3.03157881-5.16315849 5.30526357-10.56315762 4.12105254-10.42105254 5.35263135-10.56315761 2.03684239-9.42631612 2.1315788-11.6052627 1.13684238-10.46842118v-10.56315851l-1.13684238-9.37894745-2.1315788-10.51578896-1.04210508-9.4736839-4.21578985-9.4263161-4.12105254-9.42631612-5.4-9.56842119-5.06842119-7.34210508-3.26842119-5.30526269-4.12105254-4.21578985-202.87894746-233.24210507-7.34210508-11.51052628-6.39473642-11.55789492-2.03684239-11.6052627-2.03684238-12.64736865v-5.11578984l2.03684238-6.48947373 1.08947374-5.16315762 3.1263161-6.34736865 5.21052627-11.55789492 9.47368389-11.46315762L428.72631612 102.97368388z" fill="#006138" p-id="3919"></path></svg>