<?xml version="1.0" standalone="no"?><!DOCTYPE svg PUBLIC "-//W3C//DTD SVG 1.1//EN" "http://www.w3.org/Graphics/SVG/1.1/DTD/svg11.dtd"><svg t="1550733796265" class="icon" style="" viewBox="0 0 1024 1024" version="1.1" xmlns="http://www.w3.org/2000/svg" p-id="4596" xmlns:xlink="http://www.w3.org/1999/xlink" width="320" height="320"><defs><style type="text/css"></style></defs><path d="M480.50403945 339.79437002h48.68375625c8.27893828 0 24.74682627 1.88975742 29.3362374-7.469042 1.79976885-2.78964229 3.68952714-8.45891542 3.68952627-11.24855683 1.79976885-6.56915713 0-18.71759971 0-25.28675684v-33.65568368V126.52172422c0-7.469042 0.89988487-64.52172422-1.79976885-64.52172422h-95.38776562c-3.68952714 0-1.79976885 28.07639912-1.79976884 32.75579883v134.62273301c0 30.86604141-2.78964229 63.62184023 0 94.48788076 1.70978027 9.44878799 8.99884599 15.02807256 17.27778339 15.92795742z" fill="#008666" p-id="4597"></path><path d="M620.88603418 71.44878799v141.19189102c0 43.0144831 5.48929599 90.70836592-0.89988486 133.72284814-3.68952714 27.08652568-67.94128565 9.35879942-86.29893106 14.93808486-19.25753027 6.56915713-10.978592 43.91436797-10.97859199 58.94243965v90.70836592c7.37905342-16.82784141 31.22599482-11.24855683 44.9942291-11.24855771 24.74682627 0 54.17305136 4.67939971 78.01999365 0 10.07870713-2.78964229 14.66811826-11.24855683 14.66811827-20.60735625-3.68952714-2.78964229 0-30.86604141 0-36.44532599v-56.15279735-201.03421554C783.40518916 243.41673184 864.12483652 373.45005371 864.12483652 511.85230156c0 175.83744727-132.19304502 331.0675374-303.80103457 354.46453682V758.78063106 705.50746367v-25.28675684c0-3.77951484-0.89988487-9.35879942 0-13.04832655 2.78964229-7.469042-0.89988487-3.77951484 5.489296-6.56915713 10.978592-3.77951484 107.35623018 12.1484417 94.48788077-19.6174837-4.58941114-8.45891542 0-34.64555625-1e-8-44.90424052V502.58349073c0.89988487 24.29688339-28.43635254 18.71759971-44.09434423 18.7175997-24.74682627 0-51.38340997-2.78964229-75.23035138 0-24.74682627 0-18.35764541 32.75579883-18.3576454 48.5937668v90.70836592c-4.58941114 0-11.96846455 0.89988487-15.56800312-0.89988487-5.48929599-1.88975742-4.58941114-0.89988487-4.58941114-9.35879942v-24.29688339-46.79399883c0-13.04832656 2.78964229-29.96615654-0.89988487-43.01448223-3.68952714-21.50724112-37.61517568-14.93808398-52.28329394-14.93808399-22.94705654 0-50.4835251 4.67939971-73.43058164 1e-8-8.27893828-2.78964229-11.96846455-9.35879942-10.978592-17.72772627V609.21981318c0 12.1484417-2.78964229 25.28675684 0 36.44532598 3.68952714 20.60735713 31.22599482 14.93808398 45.89411397 14.93808399h45.89411309c10.07870713 0 6.38918086 9.35879942 6.38918086 17.72772627v187.98588896C291.43828935 842.91983896 159.24524434 687.68974883 159.24524434 511.85230156c0-138.40224873 81.70951992-268.4355706 205.53363808-326.38813682v229.11061378c0 21.50724112-0.89988487 43.0144831-0.89988398 65.42160908 1.79976885 12.1484417 7.37905342 17.72772627 19.25752939 19.61748368H440.90911777c16.55787656 0 52.28329395-8.45891542 61.4621171 11.24855773V408.00562138c0-22.40712598 4.58941114-45.80412539-22.94705655-47.69388281-14.66811826-0.89988487-31.22599482 0-45.89411397 0-30.32610996 0-29.3362374-14.03819912-29.3362374-42.11459824V71.26881084C198.75017744 123.82207051 54.67865645 324.85628604 69.34677471 540.91857412 86.80453526 798.10558701 320.86451533 992.57064541 572.29226651 958.01507685c226.68092578-31.76592539 395.49927305-242.24892891 382.72091221-474.14918495C943.94459903 289.31084492 806.262258 119.1426708 620.88603418 71.44878799z" fill="#008666" p-id="4598"></path></svg>