<?xml version="1.0" standalone="no"?><!DOCTYPE svg PUBLIC "-//W3C//DTD SVG 1.1//EN" "http://www.w3.org/Graphics/SVG/1.1/DTD/svg11.dtd"><svg t="1550562597887" class="icon" style="" viewBox="0 0 1024 1024" version="1.1" xmlns="http://www.w3.org/2000/svg" p-id="3884" xmlns:xlink="http://www.w3.org/1999/xlink" width="320" height="320"><defs><style type="text/css"></style></defs><path d="M239.3 226.7h224.1c31.05 0 50.85 25.65 43.2 56.7L402.2 730.7c-7.2 31.5-38.7 56.7-69.75 56.7H108.35c-31.05 0-50.85-25.65-43.2-56.7l104.4-447.3c7.2-31.05 38.25-56.7 69.75-56.7" fill="#E03333" p-id="3885"></path><path d="M444.5 226.7h257.4c31.05 0 17.1 25.65 9.9 56.7L607.4 730.7c-7.2 31.5-4.95 56.7-36.45 56.7H313.55c-31.5 0-50.85-25.65-43.2-56.7L374.75 283.4c7.2-31.05 38.25-56.7 69.75-56.7" fill="#004889" p-id="3886"></path><path d="M691.55 226.7h223.65c31.5 0 50.85 25.65 43.2 56.7L854 730.7c-7.2 31.5-38.7 56.7-69.75 56.7H560.6c-31.5 0-50.85-25.65-43.2-56.7l104.4-447.3c7.2-31.05 38.7-56.7 69.75-56.7" fill="#008089" p-id="3887"></path><path d="M654.2 632.6h21.15l6.3-20.25H660.5l-6.3 20.25z m17.1-56.25l-7.2 23.85s8.1-4.05 12.15-5.4c4.5-0.9 10.8-1.8 10.8-1.8l4.95-16.65h-20.7z m10.35-34.2l-7.2 22.95s7.65-3.6 12.15-4.5c4.5-1.35 10.8-1.35 10.8-1.35l4.95-16.65-20.7-0.45z m46.8 0L701 632.6h7.2l-5.85 18.45h-7.2l-1.8 5.85H667.25l1.8-5.85h-52.65l5.4-17.1h5.4l27.9-91.8 5.4-18.45h26.55l-2.7 9.45s7.2-4.95 13.95-6.75 45-2.25 45-2.25l-5.85 18.45-9-0.45z" fill="#FFFFFF" p-id="3888"></path><path d="M740.15 523.7h28.35l0.45 10.35c0 1.8 1.35 2.7 4.5 2.7h5.85l-5.4 17.55h-15.3c-13.05 0.9-18.45-4.95-18-11.25l-0.45-19.35z m3.6 82.35h-27l4.5-15.3h30.6l4.5-13.95H725.75l5.4-17.55H815.75l-5.4 17.55H782l-4.5 13.95h28.35l-4.5 15.3H770.75l-5.4 6.3h12.6l3.15 19.35c0.45 1.8 0.45 3.15 0.9 4.05 0.45 0.9 4.5 0.9 6.75 0.9h3.6l-5.85 19.8h-9.45c-1.35 0-3.6 0-6.75-0.45-2.7-0.45-4.95-1.8-6.75-2.7s-4.5-3.15-4.95-6.75l-3.15-19.35-13.95 19.35c-4.5 5.85-10.35 10.8-20.7 10.8H701l4.95-17.1h7.65c2.25 0 4.05-0.9 5.4-1.8 1.35-0.45 2.7-1.35 4.05-3.6l20.7-28.8zM448.55 563.75h71.55l-5.4 17.1h-28.35l-4.5 14.4h29.25l-5.4 17.55h-29.25l-7.2 23.4c-0.9 2.7 6.75 3.15 9.9 3.15l14.4-1.8-5.85 19.35h-32.85c-2.7 0-4.5-0.45-7.65-0.9-2.7-0.9-4.05-1.8-5.4-4.05-1.35-1.8-3.15-3.6-1.8-7.65l9.45-31.5H433.25l5.4-18h16.2l4.5-14.4h-16.2l5.4-16.65z m48.15-30.6h29.25l-5.4 18H480.5l-4.5 3.6c-1.8 1.8-2.7 0.9-4.95 2.25s-7.2 3.6-13.05 3.6h-12.6l5.4-17.1h4.05c3.15 0 5.4-0.45 6.75-0.9 1.35-0.9 2.7-2.7 4.5-5.4l7.2-13.5h29.25l-5.85 9.45z m56.25 29.25s8.1-7.2 21.6-9.45c3.15-0.45 22.5-0.45 22.5-0.45l3.15-9.9h-41.4l-5.85 19.8z m38.7 7.65h-40.95l-2.7 8.1h35.55c4.05-0.45 4.95 0 5.4 0l2.7-8.1z m-53.1-46.35h24.75l-3.6 12.6s8.1-6.3 13.5-8.55 18-4.05 18-4.05h40.5l-13.5 45.9c-2.25 7.65-4.95 13.05-6.75 15.3-1.35 2.25-3.15 4.5-6.75 6.3s-6.3 2.7-9.45 3.15c-2.7 0-6.75 0.45-12.6 0.45H543.5l-10.8 36c-0.9 3.6-1.35 5.4-0.9 6.3s1.8 1.8 3.6 1.8l17.1-1.8-5.85 19.8h-19.35c-6.3 0-10.35 0-13.5-0.45-3.15 0-5.85 0-8.1-1.8-1.8-1.8-4.5-3.6-4.5-5.85 0-1.8 0.9-5.4 2.25-9.9l35.1-115.2z" fill="#FFFFFF" p-id="3889"></path><path d="M611 597.5l-2.25 10.8c-0.9 3.6-1.8 5.85-4.5 8.1s-5.85 4.95-13.5 4.95l-13.95 0.45v12.6c0 3.6 0.9 3.15 1.35 3.6s1.35 0.9 1.8 0.9h4.5l13.05-0.9-5.4 18h-15.3c-10.8 0-18.45 0-21.15-2.25-2.7-1.8-2.7-3.6-2.7-7.2l0.9-48.6h24.3l-0.45 9.9h5.85c1.8 0 3.15 0 4.05-0.9 0.9-0.45 1.35-1.35 1.8-2.7l2.25-7.65 19.35 0.9zM265.85 369.8c-0.9 4.05-16.2 75.6-16.65 75.6-3.15 14.4-5.85 24.75-13.95 31.5-4.5 4.05-10.35 5.85-16.65 5.85-10.35 0-16.2-4.95-17.1-14.85v-3.15l3.15-19.35s16.2-65.25 19.35-73.8c0-0.45 0-0.9 0.45-0.9-31.95 0.45-37.35 0-37.8-0.45 0 0.45-0.9 4.5-0.9 4.5l-16.65 73.8-1.35 6.3-2.7 20.25c0 5.85 1.35 10.8 3.6 15.3 7.65 13.5 29.25 15.3 41.4 15.3 15.75 0 30.6-3.6 40.5-9.45 17.55-10.35 22.05-26.55 26.1-40.5l1.8-7.2s16.65-67.95 19.8-76.5c0-0.45 0-0.9 0.45-0.9-24.3-0.45-31.05-0.9-32.85-1.35m92.7 135c-11.25 0-15.3 0-28.35 0.45l-0.45-0.9c1.35-4.95 2.25-9.9 3.6-14.85l1.8-6.75c2.25-10.8 4.95-22.95 4.95-27 0.45-2.25 0.9-8.1-5.4-8.1-2.7 0-5.4 1.35-8.55 2.7-1.8 5.85-4.95 21.6-6.3 28.8-3.15 15.3-3.6 17.1-4.95 24.75l-0.9 0.9c-11.7 0-15.75 0-28.8 0.45l-0.45-0.9c2.25-9 4.5-18 6.75-27.45 5.4-24.75 6.75-34.2 8.55-46.8l0.9-0.9c13.05-1.8 16.2-2.25 30.15-4.95l1.35 1.35-2.25 7.65c2.25-1.35 4.5-2.7 7.2-4.05 6.75-3.15 13.95-4.05 18-4.05 6.3 0 13.05 1.8 15.75 9 2.7 6.3 0.9 14.4-2.7 29.7l-1.8 7.65c-3.6 17.1-4.05 20.25-6.3 31.95l-1.8 1.35z m45.9-15.75h-15.3c-4.05 0-8.55 0.45-14.85 0.45l-0.45-0.45-0.45-0.45c1.8-6.3 2.7-9 3.6-11.25s1.8-4.5 3.15-11.25c1.8-8.55 3.15-14.4 4.05-19.8 0.9-4.95 1.35-9.45 2.25-14.4l0.45-0.45 0.45-0.45c6.75-0.9 11.25-1.8 15.3-2.25 4.5-0.45 9-1.35 15.75-2.7l0.45 0.45v0.45l-4.05 16.2c-1.35 5.4-2.7 10.8-3.6 16.2-2.7 11.25-3.6 15.75-4.05 18.45s-0.9 4.5-1.8 10.35l-0.45 0.45-0.45 0.45z m71.55-39.6c-0.45 2.7-3.15 13.95-6.75 18.45-2.25 3.15-5.4 5.4-8.55 5.4-0.9 0-6.3 0-6.75-8.1 0-4.05 0.9-8.1 1.8-12.6 3.15-13.05 6.3-24.3 15.3-24.3 7.65-0.45 8.1 7.65 4.95 21.15m29.25 0.9c4.05-17.55 0.9-25.2-3.15-30.15-5.85-7.65-16.2-9.9-27-9.9-6.3 0-21.6 0.45-33.75 11.7-8.55 8.1-12.6 18.9-14.85 29.25s-5.4 29.7 12.15 36.9c5.4 2.25 13.05 3.15 18.45 3.15 13.05 0 26.1-3.6 36-13.95 7.65-9 11.25-21.6 12.15-27m292.95-39.15c-13.95 2.7-18 3.15-31.5 4.95l-0.9 0.9c0 0.9-0.45 2.25-0.45 3.15-2.25-3.6-4.95-6.3-9.9-8.1-5.85-2.25-20.25 0.9-32.4 11.7-8.55 8.1-12.6 18.9-14.85 29.25s-5.4 29.7 12.15 36.45c5.4 2.25 10.8 3.15 15.75 2.7 5.4-0.45 10.35-3.15 14.85-6.75-0.45 1.35-0.9 3.15-1.35 4.5l0.9 0.9c12.6-0.45 16.65-0.45 30.15-0.45l1.35-0.9c1.8-11.7 4.05-22.95 9-45.45 2.25-10.8 4.95-21.15 7.65-31.95l-0.45-0.9z m-44.55 58.05c-2.25 3.15-7.65 5.4-10.8 5.4-0.9 0-6.3 0-6.75-8.1 0-4.05 0.9-8.1 1.8-12.6 3.15-12.6 6.3-23.85 15.3-23.85 5.85 0 8.55 5.4 8.1 14.4-0.45 2.25-0.9 4.5-1.8 7.2-0.9 4.05-1.8 7.65-2.7 11.7-0.9 1.8-1.8 4.05-3.15 5.85m-171.45 35.55c-11.25 0-15.3 0-28.35 0.45l-0.45-0.9c0.9-4.95 2.25-9.9 3.6-14.85l1.35-6.75c2.25-10.8 4.95-22.95 4.95-27 0-2.25 0.9-8.1-5.4-8.1-2.7 0-5.4 1.35-8.55 2.7-1.8 5.85-4.95 21.6-6.3 28.8-3.15 15.3-3.6 17.1-4.95 24.75l-0.9 0.9c-11.7 0-15.75 0-28.8 0.45l-0.45-0.9c2.25-9 4.5-18 6.75-27.45 5.4-24.75 6.75-34.2 8.55-46.8l0.9-0.9c13.05-1.8 16.2-2.25 30.15-4.95l0.9 1.35-2.25 7.65c2.25-1.35 4.5-2.7 7.2-4.05 6.75-3.15 13.95-4.05 18-4.05 6.3 0 13.05 1.8 15.75 9 2.7 6.3 0.9 14.4-2.7 29.7l-1.8 7.65c-3.6 17.1-4.05 20.25-6.3 31.95 0.9 0-0.9 1.35-0.9 1.35z" fill="#FFFFFF" p-id="3890"></path><path d="M679.85 369.8h-9.45c-24.3 0.45-34.2 0-38.25-0.45-0.45 1.8-0.9 4.95-0.9 4.95l-8.55 40.5-22.05 90c21.15-0.45 30.15-0.45 33.75 0 0.9-4.05 5.85-27.9 5.85-27.9s4.05-17.55 4.5-18.45c0 0 1.35-1.8 2.7-2.7h1.8c18.45 0 39.15 0 55.35-12.15 10.8-8.1 18.45-20.25 22.05-35.1 0.9-3.6 1.35-8.1 1.35-12.15 0-5.85-1.35-11.25-4.5-15.3-8.1-10.8-24.3-11.25-43.65-11.25m12.15 41.85c-1.8 9-7.65 16.65-15.3 20.25-6.3 3.15-13.95 3.15-21.6 3.15h-4.95l0.45-2.25s9.45-40.5 9.45-40.05v-4.05l3.6 0.45 19.8 1.8c7.65 3.6 10.8 11.25 8.55 20.7M416.6 435.5c7.65-5.4 8.55-12.15 2.25-16.2-6.3-3.6-17.55-2.7-24.75 2.7-7.65 4.95-8.55 12.15-2.25 16.2 6.3 3.6 17.55 2.7 24.75-2.7m475.2-24.75l-0.9-1.35c-13.95 2.7-16.2 3.15-29.25 4.95l-0.9 0.9v0.45c-9.45 22.05-9 17.1-17.1 34.65v-2.25l-1.8-37.35-1.35-1.35c-14.4 2.7-14.85 3.15-28.35 4.95l-0.9 0.9v1.35c1.8 8.55 1.35 6.75 3.15 20.25 0.9 6.75 1.8 13.5 2.7 19.8 1.35 10.8 2.25 16.65 3.6 33.3-9 14.85-11.25 20.7-19.8 33.75l-6.3 9.9c-0.9 0.9-1.35 1.8-2.25 1.8-0.9 0.45-2.25 0.45-4.05 0.45h-3.6l-4.95 17.1 17.55 0.45c10.35 0 16.65-4.95 20.25-11.25l10.8-18.9 1.35-1.35c6.3-14.85 62.1-111.15 62.1-111.15" fill="#FFFFFF" p-id="3891"></path></svg>