<?xml version="1.0" standalone="no"?><!DOCTYPE svg PUBLIC "-//W3C//DTD SVG 1.1//EN" "http://www.w3.org/Graphics/SVG/1.1/DTD/svg11.dtd"><svg t="1550733746213" class="icon" style="" viewBox="0 0 1024 1024" version="1.1" xmlns="http://www.w3.org/2000/svg" p-id="3457" xmlns:xlink="http://www.w3.org/1999/xlink" width="320" height="320"><defs><style type="text/css"></style></defs><path d="M635.85019531 409.90185547c13.65644531-0.39287109 27.33310547-0.12480469 41.00185547-0.1265625 10.26650391-0.00175781 11.109375-0.81210937 9.66357422-10.80175781-0.21445313-1.46865234-2.31064453-3.80302734-3.56660156-3.81884766-17.88134766-0.24521484-35.76621094-0.17138672-54.52910156-0.17138672 0 3.23173828 0.25224609 5.38330078-0.04746094 7.45751953-0.87539062 6.00117187 1.66728516 7.63154297 7.48300781 7.46367188zM680.0328125 427.03349609c-13.00869141 0.44736328-26.04462891 0.13271484-39.07001953 0.13271485-13.62216797 0-13.62216797 0-11.96103516 14.87021484 17.33818359 0 34.37490234-0.26630859 51.39404297 0.13886719 6.06005859 0.14414062 6.38349609-2.71318359 6.40634766-7.37050781 0.02373047-4.92802734-0.46142578-7.99277344-6.77021485-7.77480469zM620.43681641 613.11904297c6.86162109 1.73320312 14.7515625 0.14941406 22.05439453-0.90966797 4.53867187-0.65917969 7.17275391-4.29433594 7.13144531-9.25927734-0.04130859-4.98867187-2.71142578-8.04462891-7.37314453-9.03867188-4.11679688-0.87626953-8.36455078-1.13466797-12.55429688-1.66992187-0.01757813 0.16875-0.03955078 0.33574219-0.0571289 0.50537109-2.76855469 0-5.53271484 0.07119141-8.29775391-0.01582031-3.99638672-0.12480469-4.9078125 2.57519531-4.18798828 5.45537109 1.27001953 5.09501953-4.13349609 13.05615234 3.28271484 14.93085938zM698.16904297 625.90185547h26.72050781l-13.37958984-30.57539063-13.33916016 30.57539063zM646.55 624.60283203c-4.7109375-1.02568359-9.60644531-1.21552734-14.42373047-1.77011719l-0.05449219 0.50185547c-3.40136719 0-6.80537109 0.09228516-10.20146484-0.02724609-3.00585938-0.10810547-5.38769531 0.74091797-4.71884766 4.16601562 1.09775391 5.62939453-3.82939453 14.52128906 2.94521485 16.33886719 8.17910156 2.19199219 17.63349609 0.31289062 26.43134765-0.70664062 4.54833984-0.52558594 7.05322266-4.24248047 7.08837891-9.24257813 0.03691406-5.03349609-2.43544922-8.25292969-7.06289062-9.25927734zM430.47001953 450.05117188c-18.12568359 0.19072266-36.26103516 0.08085937-54.39287109 0.08085937h-11.18935547c-2.82304688 16.44521484-1.49150391 19.15400391 12.23876953 25.84072266 23.52919922 11.46884766 23.37363281 11.14541016 48.07353516-0.91054688 8.66513672-4.22753906 11.67451172-10.17070313 11.30185547-19.2383789-0.1828125-4.4859375-1.65146484-5.82539062-6.03632813-5.7788086z" fill="#FF6100" p-id="3458"></path><path d="M512 62.9703125C264.00869141 62.9703125 62.9703125 264.00605469 62.9703125 512S264.00605469 961.0296875 512 961.0296875 961.0296875 759.99394531 961.0296875 512 759.99394531 62.9703125 512 62.9703125z m313.74580078 313.5234375c13.88496094-0.13271484 27.77167969-0.03076172 41.65488281-0.03076172 15.80800781 0 31.62041016 0.16875 47.42490235-0.09492187 5.38242188-0.08964844 7.75107422 1.37373047 7.61572265 7.1868164-0.41923828 17.90947266 1.87207031 15.19628906-15.39667968 15.26748047-29.05400391 0.12128906-58.10800781-0.14414062-87.15673829 0.16875-6.36855469 0.06679687-8.13076172-2.20517578-8.07451171-8.16064453 0.16875-17.25820313-0.14853516-14.20136719 13.93330078-14.33847656z m-90.18457031 37.27353516c9.08701172-11.34404297 18.29707031-22.58964844 27.31376953-33.98730469 2.57695312-3.25458984 5.33496094-5.00185547 9.73476562-4.77246094 7.19912109 0.37705078 14.43251953 0.10283203 21.65361329 0.10283203 0.33837891 0.56425781 0.67763672 1.12939453 1.01689453 1.69189453-5.44394531 6.78427734-10.89404297 13.56064453-16.3265625 20.34667969-1.87119141 2.33613281-4.20117188 4.45341797-5.49492188 7.07695313-8.71083984 17.67128906-24.04160156 16.62099609-40.86123047 14.31123047 1.12939453-1.83867187 1.88789062-3.43037109 2.96367188-4.77070313z m-198.24697266-36.4078125c0.60908203-1.07050781 2.35634766-2.07070313 3.60087891-2.10322266 7.58496094-0.19072266 15.17695312-0.09667969 23.95810547-0.09667969l-6.24550781 12.81621094c9.95625 0 18.80507813 0.30322266 27.62490234-0.10458984 5.97392578-0.27685547 8.2828125 1.95556641 7.59814453 7.77304687-0.22148437 1.89228516-0.15644531 3.84257812-0.01494141 5.74892578 0.35683594 4.73027344-1.91074219 6.48457031-6.46259765 6.44150391-11.72373047-0.11513672-23.45361328 0.04658203-35.17646485-0.08964844-3.46289063-0.03955078-5.65927734 0.90439453-7.91542968 3.90585938-1.83339844 2.44335938-5.48964844 4.47451172-8.55615235 4.84189453-6.2015625 0.73916016-12.54990234 0.22060547-20.45566406 0.22060547 7.93652344-14.24003906 14.90537109-26.84707031 22.04033203-39.35742188zM157.821875 631.23857422c-8.96396484 0.19072266-17.94111328 0.16347656-26.90771484 0.06064453-3.73007812-0.04394531-5.58632813 1.24277344-5.34375 5.21103516 0.19335938 3.19042969-0.33398438 6.45820312 0.10195312 9.59677734 0.92021484 6.6515625-1.80878906 8.38916016-8.21865234 8.19052734-5.49492188-0.16962891-6.89501953-2.05048828-6.721875-7.18066406 0.32958984-9.81298828 0.09667969-19.64707031 0.09667969-29.47060547 0.00087891-10.03798828 0.12128906-20.07861328-0.06064454-30.11308593-0.07119141-3.88476563 0.77871094-5.9203125 5.25673829-5.85175782 13.87880859 0.20830078 27.77431641-0.19863281 41.64433593 0.18017578 15.2578125 0.41572266 24.24638672 10.54599609 24.12246094 26.3663086-0.11162109 14.53007812-8.50517578 22.68105469-23.97392578 23.01240234z m50.09150391-13.17128906c-0.00087891 10.22871094-0.17490234 20.4609375 0.07470703 30.68085937 0.12128906 4.92099609-2.36689453 5.65664063-6.36591797 5.36308594-3.65888672-0.27597656-8.01123047 1.18388672-7.97519531-5.13369141 0.10986328-20.66748047 0.13886719-41.33496094-0.04394532-62.00419922-0.06064453-6.92138672 4.74433594-4.81728516 8.40585938-5.24443359 4.35585938-0.50976563 6.09082031 1.10566406 5.97919922 5.65927734-0.25048828 10.21992187-0.07558594 20.45039062-0.07558594 30.68085938z m-2.90566407-120.43476563c0 9.54667969-0.13271484 18.06416016 0.05009766 26.56845703 0.10810547 4.97988281-2.03115234 6.96972656-6.91787109 6.79306641a222.96884766 222.96884766 0 0 0-16.02597657-0.00087891c-4.43408203 0.15908203-6.16552734-1.78154297-6.08027343-6.11103515 0.13886719-7.04970703-0.20830078-14.11611328 0.10458984-21.15615235 0.21621094-4.79355469-1.50029297-6.24199219-6.25869141-6.19541015-22.01132813 0.21445313-44.02880859 0.10458984-66.04189453 0.08876953-8.04111328-0.00527344-8.30478516-0.33222656-8.39443359-8.3381836-0.16435547-14.20927734 0.04130859-12.78632813 12.99023437-12.77314453 20.09003906 0.01933594 40.18535156-0.22851563 60.26748047 0.14677735 6.09873047 0.11337891 7.54892578-1.97753906 7.47509766-7.6913086a2376.7734375 2376.7734375 0 0 1 0.00527344-64.11621094c0.07998047-5.73662109-1.84482422-7.29667969-7.38017578-7.21582031-19.66025391 0.28388672-39.32841797-0.06679687-58.98867188 0.21621094-5.98447266 0.08876953-8.38037109-1.55126953-8.18789063-7.92597656 0.36826172-12.18603516 0.04130859-12.19482422 12.16669922-12.1921875 51.93808594 0.00087891 103.87089844-0.00087891 155.80898438 0.00263672 8.89541016 0.00087891 9.00615234 0.11689453 9.06240234 8.80488281 0.00615234 1.28144531-0.10986328 2.57519531 0.01494141 3.84433594 0.54052734 5.43955078-1.59345703 7.54189453-7.30283203 7.46542968-19.66025391-0.28388672-39.32841797 0.10107422-58.98867188-0.22851562-5.85351563-0.09667969-7.62626953 1.56269531-7.52607422 7.5234375 0.36123047 21.36621094 0.13886719 42.74560547 0.13886719 64.11621094v6.86689453c2.90566406 0.15380859 5.17763672 0.36826172 7.44697266 0.36914062 21.79775391 0.02724609 43.60429687 0.20742188 65.39677734-0.0984375 6.23408203-0.08876953 8.24150391 1.99335938 8.10439453 8.1553711-0.28740234 13.07197266-0.02373047 13.07636719-13.36552734 13.07460937-19.87646484-0.00175781-39.75380859 0-59.63115235 0.00087891h-7.96289062z m-93.87597656-85.23369141c9.16435547 0 17.95693359-0.1265625 26.73808594 0.14414063 1.26210937 0.03955078 2.90917969 1.7859375 3.62197265 3.14121094 7.42939453 14.15302734 14.71464844 28.37197266 21.98496094 42.609375 0.44384766 0.86748047 0.35771484 2.00302734 0.63632813 3.72480468-9.14589844 0-17.93144531 0.13271484-26.7038086-0.15380859-1.2234375-0.04130859-2.78173828-1.94589844-3.50947265-3.33896484-7.38544922-14.17060547-14.63730469-28.41152344-21.89355469-42.64892578-0.36386719-0.72333984-0.41660156-1.60839844-0.87539063-3.47431641z m158.63994141-0.19248046c-0.96152344 2.73076172-1.42294922 4.71357422-2.31855469 6.48457031-6.42041016 12.73886719-13.04912109 25.37666016-19.33417969 38.1796875-2.0671875 4.20820312-5.00185547 6.01523437-9.54492187 5.95107422-7.30283203-0.10107422-14.61005859-0.02724609-23.46503907-0.0272461 8.90595703-17.19052734 16.75634766-32.4984375 24.84228516-47.68242187 0.73564453-1.38251953 2.95927734-2.72373047 4.54130859-2.77470703 8.05869141-0.27949219 16.1296875-0.1265625 25.28085938-0.1265625z m27.57392578 233.00419921c-0.02724609 2.89951172-0.86748047 8.01123047-2.13398438 8.27666016-4.54482422 0.95009766-9.78222656 2.19199219-13.70302734-2.29306641-5.20136719-5.94667969-10.45458984-11.85380859-15.69375-17.76621093a58194.44912109 58194.44912109 0 0 0-27.50449219-31.03681641c-0.66621094 0.22851563-1.33242187 0.45966797-2.00039062 0.68730469 0 8.24677734 0.00527344 16.49355469-0.00175782 24.74121094-0.00615234 7.26240234-0.10810547 14.5265625-0.01582031 21.78896484 0.05712891 4.38486328-2.65957031 4.78388672-5.9493164 4.48505859-2.90566406-0.26630859-6.96972656 1.33242187-6.95742188-3.98935547 0.03867188-21.99814453 0.08964844-43.99980469 0.17402344-65.99794921 0.00175781-0.57568359 0.44384766-1.14873047 0.65478515-1.66992188 8.08066406-2.13398438 14.05019531-0.14941406 19.58115235 6.56982422 12.33544922 14.97216797 25.52167969 29.24736328 39.69667969 45.32167969 0.25927734-3.76259766 0.49833984-5.69091797 0.50185546-7.61572266 0.03427734-13.03154297 0.30585937-26.07011719-0.10810546-39.08847656-0.18632813-5.90185547 2.89248047-5.84912109 7.13408203-5.96425781 4.39277344-0.11865234 6.59794922 0.69873047 6.52412109 5.88339843-0.27333984 19.22080078-0.01757813 38.45039063-0.20566406 57.67558594z m85.74345703-5.39560546c-2.15507813 8.77412109-9.65742187 13.73994141-18.61699219 14.28398437a280.56181641 280.56181641 0 0 1-33.9336914 0.01494141c-11.35634766-0.69169922-19.56533203-9.93339844-19.8272461-21.27480469-0.23466797-10.040625-0.20302734-20.09179688 0.00527344-30.12978516 0.22148437-10.67167969 7.42851563-19.91689453 18.01582031-20.79492187 12.46816406-1.03535156 25.16396484-1.11621094 37.61806641 0.0008789 11.47851563 1.03447266 19.03886719 11.77910156 17.65898437 23.51513672-2.98300781 0-6.10488281-0.13798828-9.20917968 0.03691407-3.60966797 0.20126953-5.31210937-1.33857422-4.77246094-4.88935547 0.91757813-6.05478516-2.18935547-7.10068359-7.41621094-6.95302735-10.67871094 0.30585937-21.37412109 0.23466797-32.05195312 0.02373047-4.17480469-0.084375-5.81396484 1.57763672-5.79902344 5.57753906a4406.80957031 4406.80957031 0 0 1-0.00615235 37.18476563c-0.01933594 3.94980469 1.45810547 5.76650391 5.70322266 5.69443359 11.32207031-0.19511719 22.65292969-0.18017578 33.98027344-0.00263672 4.11416016 0.06240234 6.05126953-1.35966797 5.56347656-5.56347656-0.02548828-0.21357422 0.00087891-0.42626953-0.00087891-0.63896484-0.14677734-12.75117188 1.37636719-10.90458984-10.72705078-11.09882813-1.28144531-0.01933594-2.56464844 0.00087891-3.84697265-0.00175781-9.10019531-0.02021484-9.52646484-0.590625-7.46542969-10.75605469h37.14082031c-0.57128906 8.73632813 0.00615234 17.57373047-2.00742187 25.77304688z m74.78173828 11.20078125c-0.05712891 1.11269531-1.88964844 2.17089844-2.98300781 3.16230468-0.24082031 0.21621094-0.82353516 0.04394531-1.2506836 0.07558594-17.61855469 1.29990234-19.39482422-0.86923828-16.49970703-21.41455078h20.87402344c0 6.4265625 0.15820313 12.30996094-0.13886719 18.17314453z m14.63115234-4.01484375c-8.15361328-16.17978516-16.28085938-32.36660156-25.03037109-49.76542969-1.64443359 2.86523438-2.82304688 4.69951172-3.79863281 6.63310547-7.10683594 14.1046875-14.17060547 28.23310547-21.25458985 42.34833984-4.42792969 8.82861328-7.28964844 9.93339844-17.69589843 6.54257813 0.41132812-1.31660156 0.64951172-2.73076172 1.26826172-3.95332032 10.50820312-20.76416016 21.15615234-41.46152344 31.52724609-62.29423828 1.95908203-3.93486328 4.61337891-5.15126953 8.66689453-4.82695312 3.89443359 0.31289062 7.93388672-0.93164063 10.39658203 4.02626953 10.63916016 21.41455078 21.57626953 42.67880859 32.37011719 64.01425781 0.44736328 0.88242188 0.56425781 1.93447266 0.82617187 2.87314453-9.23642578 3.60966797-13.32509766 2.25-17.27841796-5.60039062z m9.19423829-196.86708985c-6.16025391 0.00615234-12.32138672 0.00087891-18.92636719 0.00087891-1.50556641 11.03994141 1.63125 23.36396484-8.63525391 30.73710937-8.73544922 6.27363281-18.50097656 11.11464844-28.23574219 16.83632813 9.69257812 5.11962891 19.83867187 7.89169922 30.61494141 8.14042969 9.39814453 0.21445313 18.80947266 0.21445313 28.21025391 0.0008789 4.51142578-0.10283203 6.67792969 1.21025391 6.61992187 6.11894532-0.20566406 16.57880859 1.16191406 13.98955078-13.3743164 13.94384765-16.36523438-0.05361328-32.97041016 1.80263672-48.70283204-4.80673828-7.66757813-3.2203125-15.45292969-6.19716797-22.95351562-9.78134766-4.43583984-2.11904297-8.06308594-1.90898437-12.66503906-0.07998046-12.81972656 5.09677734-25.65263672 11.1515625-39.06650391 13.52724609-13.696875 2.42314453-28.08632812 1.01337891-42.17431641 0.98613281-1.30341797-0.00263672-3.57626953-2.04697266-3.72128906-3.33808594-0.48339844-4.22138672-0.77871094-8.64931641 0.0984375-12.73271484 0.34628906-1.61630859 3.90146484-3.48398437 6.08554688-3.60966797 12.56396484-0.71630859 25.21494141-0.33837891 37.71474609-1.56621094 7.23867188-0.70927734 14.24443359-3.74326172 21.35830078-5.72695312a305.45507813 305.45507813 0 0 0-0.02724609-2.00917969c-6.07324219-3.01816406-12.10341797-6.12158203-18.22675781-9.03339844-12.51650391-5.94931641-19.08808594-15.57509766-17.81806641-29.61474609 0.59853516-6.61464844-1.74375-8.66689453-8.21865234-8.11142578-6.57685547 0.56425781-13.246875-0.03427734-19.86503907 0.17138672-4.75488281 0.14853516-6.35625-2.08037109-6.53730468-6.54521485-0.56162109-13.93154297-0.65478516-13.92363281 13.21699218-13.91396484 5.34199219 0.00263672 10.68837891-0.09667969 16.03125-0.00351562 3.69580078 0.06503906 5.63027344-1.30253906 5.29804688-5.26904297-0.17490234-2.12167969 0.08964844-4.27851562-0.03427735-6.40634766-0.23466797-3.93662109 1.93007812-5.38242188 5.44833985-5.42988281 4.27324219-0.05712891 8.56054688 0.18017578 12.81972656-0.07470703 5.69091797-0.33925781 8.47353516 1.88349609 8.05253906 7.78623047-0.19335938 2.73076172-0.03251953 5.48789062-0.03251953 8.82158203 2.77470703 0.22060547 5.04580078 0.55107422 7.3116211 0.55107422 19.02304688 0.03691406 38.04873047-0.17490234 57.06298828 0.12304687 5.98447266 0.09580078 8.39355469-1.50820312 8.1-7.88378906-0.42626953-9.25751953 0.01494141-9.31904297 9.14941406-9.34101563 1.06962891-0.00263672 2.13662109 0 3.20625 0 12.28798828 0 12.43212891-0.00615234 13.33125 12.41191407 0.26982422 3.7265625 1.93007812 4.73115234 5.23037109 4.69951171 6.83876953-0.06240234 13.67753906 0.16875 20.51191407-0.01669921 5.00449219-0.13271484 7.34853516 1.37021484 7.20966796 6.96972656-0.37177734 14.89658203 1.19091797 13.45605469-13.46572265 13.47451172z m11.91972656-39.5727539c-0.68466797 1.18388672-2.61914063 1.99599609-4.10712891 2.27724609-2.06367187 0.39023438-4.25566406 0.12480469-6.38964844 0.12128906-8.87080078-0.00175781-9.05800781 0.00615234-9.59677734-8.83300781-0.24257812-3.94980469-1.95908203-5.06865234-5.60742187-5.06601562-45.27949219 0.05800781-90.56162109 0.07119141-135.8428711-0.0272461-4.21347656-0.00615234-5.85527344 1.53544922-5.38769531 5.65839844 0.73037109 6.4265625-2.17353516 8.58076172-8.58867188 8.39970703-12.83027344-0.36386719-12.8390625-0.06240234-12.6149414-12.43916016 0.23027344-12.78457031 6.39667969-19.35087891 19.24101562-19.55478515 17.50957031-0.27685547 35.02705078-0.07119141 52.54101563-0.11865235 2.49697266-0.00527344 4.99394531-0.26982422 7.35292969-0.40605468 1.93095703-11.76240234 1.93095703-11.76240234 13.91396484-11.76240235 2.35019531 0 4.71884766 0.20126953 7.04355469-0.03867187 6.05478516-0.62050781 9.4921875 1.14521484 8.7046875 8.06308594-0.54052734 4.77246094 3.30556641 4.11416016 6.15498047 4.12294921 17.30126953 0.06679687 34.59902344-0.01582031 51.90117187 0.10283204 3.59033203 0.02548828 7.39072266 0.08085937 10.73847656 1.18740234 9.29707031 3.06474609 15.43886719 19.80439453 10.54072266 28.30869141z m78.9758789 234.54492187c-0.03251953 2.925-1.45019531 8.37509766-2.05048828 8.34521485-4.62568359-0.18632813-10.46777344 0.00615234-13.55097656-2.65957032-7.04882813-6.10576172-12.75029297-13.7671875-18.97646484-20.81425781-6.79570313-7.68691406-13.60898437-15.35976562-20.3203125-23.11875-1.36933594-1.58115234-2.32382812-3.52705078-3.47080078-5.30332031-0.84199219 0.51152344-1.67958984 1.02216797-2.52333985 1.5336914 0 14.48964844 0.01494141 28.97138672-0.00351562 43.46191407-0.00527344 6.97324219-4.65644531 10.15664062-11.04345703 7.21669922-1.23398437-0.56689453-2.26318359-2.99882813-2.27373047-4.57998047-0.14853516-20.94873047-0.06064453-41.90009766-0.13271485-62.85146485-0.01494141-3.22207031 1.12324219-4.45429687 4.44990235-4.67314453 6.10488281-0.40253906 10.81318359 0.83320313 15.09697265 5.98886719 11.47412109 13.80322266 23.63466797 27.03251953 35.47792969 40.52636719 1.38691406 1.58115234 2.50576172 3.39521484 3.74853516 5.10644531l2.06367187-0.8578125c0.16435547-2.12607422 0.46230469-4.25566406 0.46757813-6.37998047 0.04658203-12.18603516 0.10107422-24.37207031-0.01494141-36.55810547-0.04394531-4.56591797-0.26630859-8.05869141 6.42480469-7.98574219 6.28417969 0.06679687 6.83173828 2.89423828 6.7930664 7.80644532-0.14941406 18.59501953 0.03251953 37.19794922-0.16083984 55.79472656z m21.22998047-210.96738281c0.01494141 9.9421875 0.01494141 9.9421875-9.76289062 9.96240234-4.27060547 0.01494141-8.58955078-0.33837891-12.78632813 0.21357422-1.61630859 0.21357422-4.03681641 2.32470703-4.23105468 3.81445313-0.56689453 4.36992188-0.20302734 8.86464844-0.20302735 14.31474609 7.39072266 0 13.77070313 0.17490234 20.13310547-0.05712891 4.83134766-0.17841797 6.89326172 1.47919922 6.93896484 6.60585938 0.11689453 13.21699219 0.30849609 13.21699219-13.14667968 13.21699219h-13.35585938v30.39697265c4.97373047 0 10.00722656 0.14677734 15.03017578-0.03427734 7.70361328-0.26982422 6.09873047 5.23740234 6.36416016 9.75322266 0.26806641 4.58085938-0.25839844 7.93212891-6.29736328 7.67724609-8.52539063-0.36123047-17.08330078 0.04746094-25.61923828-0.16347656-8.10439453-0.20302734-13.58964844-5.6953125-13.76542969-13.78212891-0.20126953-9.17841797-0.33222656-18.37705078 0.03076172-27.54316406 0.20302734-5.20576172-1.73759766-6.83085938-6.665625-6.37207031-3.59824219 0.33574219-7.42851563 0.71367187-10.82373047-0.18544922-2.16210938-0.57128906-3.76875-3.39345703-5.4984375-5.31650391-0.3234375-0.35595703-0.04746094-1.24101562-0.06064453-1.88173828-0.22763672-12.31875-0.22763672-12.31875 12.05683594-12.31962891 10.5328125-0.00087891 13.95439453-4.79794922 10.60488281-15.40195312-0.40253906-1.27441406-2.64199219-2.63320312-4.1334961-2.76152344-4.45341797-0.39023438-8.95693359-0.22763672-13.44199218-0.20830078-3.42597656 0.01494141-5.08974609-1.56621094-5.08886719-5.04580078 0.00351562-15.54257812-1.26035156-14.19697266 12.68173828-14.20927735 17.72666016-0.01494141 35.4515625 0.1828125 53.17207031-0.11865234 6.18134766-0.10810547 8.76181641 2.04697266 7.87763672 8.1703125-0.06064453 0.41572266-0.00527344 0.85253906-0.00439453 1.27880859z m11.94169922-43.396875c0.02548828-8.41113281 5.66630859-14.12050781 14.12138672-14.18818359 25.20615234-0.20302734 50.42021484-0.19863281 75.63164063-0.00263672 8.36455078 0.06240234 13.83398438 5.89746094 13.90253906 14.38330078 0.14150391 18.15996094 0.15117188 36.3234375 0.00615234 54.47988281-0.07470703 9.43417969-5.76123047 14.90537109-15.40371094 14.95722656-19.01337891 0.10810547-38.03027344 0.03427734-57.04365234 0.03691407h-8.05429687v52.18505859c5.58105469 0 10.87294922 0.18896484 16.14375-0.04658203 6.95302734-0.30849609 6.57509766 4.27236328 6.55751953 8.98242187-0.01669922 4.44462891 0.49833984 8.71611328-6.23408203 8.45947266-8.53242188-0.32519531-17.09384766 0.05361328-25.63681641-0.14414063-8.74599609-0.20302734-13.96757812-5.28310547-13.99570313-14.11611328-0.12480469-41.66367187-0.1265625-83.32382812 0.00175782-124.98134765z m52.13144531 258.87832031c-3.47167969 2.2359375-7.79941406 4.09658203-11.83886718 4.32333984-11.29394531 0.64160156-22.63798828 0.39990234-33.96181641 0.38144532-4.16337891-0.00527344-6.17607422-2.34580078-6.17167969-6.51269532 0.01582031-19.44931641 0.00615234-38.89248047 0.00615235-58.34355468 0.00087891-4.52197266 2.36162109-6.60585937 6.79570312-6.58916016 9.18632812 0.03427734 18.38144531-0.10195313 27.56513672 0.10195313 8.61943359 0.18896484 16.13847656 2.97685547 19.87119141 11.43017578 3.42597656 7.75458984 0.99316406 13.99570313-7.47685547 21.63076172-0.25839844 0.23027344-0.25839844 0.7453125-0.51152344 1.56533203 1.5328125 0.87363281 3.15 1.76572266 4.74082031 2.7 11.12871094 6.53115234 11.81425781 22.32597656 0.97119141 29.30888672z m3.84433594-144.36738281c-6.72451172-11.53916016-13.43056641-23.09414062-21.10517578-36.29355469 9.00351563 0 15.99082031-0.24345703 22.93769531 0.17841797 1.659375 0.10107422 3.5296875 2.16650391 4.70302735 3.76875 2.36337891 3.22998047 4.31367188 6.76142578 6.59355468 10.42998047 5.32441406-5.00185547 9.58623047-11.48115234 15.49511719-13.85332031 5.82451172-2.33789063 13.31806641-0.50976563 21.68173828-0.50976563-1.92480469 2.81425781-2.88369141 4.53867187-4.14667968 6.00908203-6.11103516 7.12617188-12.46201172 14.05107422-18.34980469 21.35039063-1.575 1.95205078-3.17548828 5.55292969-2.39326172 7.39248047 1.72353516 4.06494141 3.60615234 8.97099609 9.66621094 8.78378906 3.40927734-0.10458984 6.83085938-0.04394531 10.23662109 0.10107422 6.85458984 0.28740234 5.79199219 5.40351562 5.91591797 9.82529297 0.11865234 4.25126953-0.41660156 7.88378906-6.03369141 7.46894531-0.42539062-0.03251953-0.85341797 0-1.27880859 0.00615234-28.91601563 0.59853516-29.32998047 0.37441406-43.92333984-24.65595703z m81.52119141 149.08886719c-2.17441406 0.44824219-5.02470703-2.30185547-7.53574219-3.6703125-0.29794922-0.16347656-0.44824219-0.73037109-0.52470703-1.13994141-2.20166016-11.82832031-10.05644531-14.02822266-20.59541016-12.69228516-5.46240234 0.69169922-11.13398438-0.30322266-16.60166015 0.35332032-2.34316406 0.28388672-4.99130859 2.40644531-6.46962891 4.44375-1.95556641 2.69736328-2.35371094 6.59003906-4.46132812 9.09667968-1.65058594 1.96259766-5.175 3.97705078-7.34853516 3.51826172-3.91113281-0.83056641-3.77841797-4.51318359-2.30185547-7.82666015a42206.65136719 42206.65136719 0 0 1 17.71435547-39.66679688c2.86962891-6.41601563 5.47294922-12.97529297 8.77675781-19.16455078 1.43349609-2.6859375 4.32333984-4.59052734 7.55595703-7.875 3.31347656 3.08759766 6.54697266 4.80322266 7.77919922 7.44697266 9.0703125 19.50380859 17.77939453 39.18164063 26.50341797 58.84804687 1.48535156 3.35302734 1.89228516 7.42587891-2.4890625 8.32675781z m10.13730469-131.10644532c0.22587891-15.59091797-0.15644531-31.19501953 0.20566406-46.77978515 0.12919922-5.59072266-1.37724609-7.79941406-7.1428711-7.17275391-4.32070312 0.46494141-8.72490234 0.09228516-14.51601562 0.09228516 1.82988281-2.92587891 2.55322266-4.38134766 3.54550781-5.61884766 9.21533203-11.50136719 18.31728516-23.10117187 27.86308594-34.32041015 1.90458984-2.23945312 5.49667969-3.97705078 8.4515625-4.21347657 7.40478516-0.59414063 14.89306641-0.19511719 24.57158203-0.19511718-9.64423828 12.23964844-18.2109375 23.11875-27.61347656 35.04990234 2.99091797 0.40517578 4.41035156 0.62490234 5.83417969 0.78134766 1.47392578 0.16083984 2.953125 0.26191406 4.99394531 0.43417968 0.21445313 1.89931641 0.59501953 3.74150391 0.59941406 5.58369141 0.04482422 18.58535156-0.12128906 37.17333984 0.12128906 55.7578125 0.07119141 5.54150391-1.76132812 7.84160156-7.41269531 7.36611328-4.24248047-0.35771484-8.55263672-0.27949219-12.8109375-0.02373047-5.00449219 0.30410156-6.76582031-1.72177734-6.69638672-6.73154297z m71.1149414 123.1022461c-0.13798828 2.8265625-2.17792969 7.23339844-4.24599609 7.83808594-2.30449219 0.67587891-6.58037109-1.39394531-8.36191406-3.59033204-11.02148438-13.61513672-21.57626953-27.60908203-32.29980469-41.46152343-1.39394531-1.79912109-2.89951172-3.52617188-5.43955078-6.59794922-0.34541016 3.36621094-0.66533203 5.11347656-0.66972657 6.85898437-0.04658203 12.60966797-0.12128906 25.22021484 0.02021485 37.82988282 0.04746094 4.21259766-1.2234375 7.72558594-5.60478516 7.76689453-4.48154297 0.0421875-5.61884766-3.59033203-5.60039062-7.73876953 0.08876953-18.59326172 0.02373047-37.18652344 0.04130859-55.78154297 0.00263672-3.38554688-0.55722656-7.91894531 3.86542969-8.22216797 3.25722656-0.22236328 7.8890625 1.19091797 9.84990234 3.56923828 10.72705078 13.01923828 20.80722656 26.57373047 31.1334961 39.92519531 1.39394531 1.80439453 2.90917969 3.51826172 4.36728515 5.26904297 0.63017578-0.18632813 1.26035156-0.38496094 1.89052735-0.57480469v-10.63916015c0.00175781-10.04589844-0.00263672-20.09003906 0.00615234-30.1350586 0.00527344-4.08076172 0.36826172-8.18525391 5.86318359-7.93652343 4.88056641 0.21621094 5.41757812 3.91025391 5.38945313 7.85126953-0.05712891 8.33466797-0.00615234 16.67197266-0.00615235 25.00576172-0.00087891 10.26035156 0.30322266 20.53300781-0.20126953 30.76699218z m76.5703125 7.34589844c-2.47324219 3.12099609-5.87373047 1.37636719-8.09912109-1.39042969-6.01875-7.47949219-11.89511719-15.075-17.84179688-22.61425781-1.83076172-2.32470703-3.71513672-4.61337891-5.9633789-7.39863282-6.87480469 5.87373047-14.47294922 10.34384766-12.67646485 21.2194336 0.77871094 4.70302734 0.94570313 11.26933594-5.82451172 11.35107422-6.88974609 0.07558594-6.01259766-6.33867188-6.01523437-11.21835938-0.00527344-17.50166016 0.03251953-35.00595703-0.02373047-52.50673828-0.01494141-4.46748047 0.68730469-8.54648438 6.22353516-8.41816406 5.19082031 0.12128906 5.72695312 4.3171875 5.76123047 8.33115234 0.07558594 8.9015625 0.02373047 17.80664063 0.02373046 28.12412109 2.44951172-2.03115234 3.91025391-3.06474609 5.16181641-4.30927734 9.06855469-9.04306641 18.09404297-18.12568359 27.13271484-27.19951172 0.90439453-0.90615234 1.69189453-2.39589844 2.73867188-2.60419922 2.98300781-0.59941406 6.07060547-0.68027344 9.11337891-0.96503906-0.44033203 2.86787109 0.07558594 6.52939453-1.50644532 8.44892578-4.04736328 4.9078125-9.01230469 9.05976563-13.65644531 13.46835938-2.62529297 2.49082031-5.34199219 4.87705078-8.68183594 7.91542968 7.60429688 9.47724609 14.53007812 18.10722656 21.44970703 26.74511719 1.19882813 1.49853516 3.10166016 2.925 3.35039063 4.58613281 0.41572266 2.79052734 0.81298828 6.56894531-0.66621094 8.43486329z m13.61074219-204.84140625h-10.72177734c0 19.88085938 0.02021484 39.0515625-0.01845704 58.22666015-0.00615234 3.40927734-0.00615234 6.85458984-0.48076171 10.21904297-1.15136719 8.26347656-5.85878906 12.50683594-14.2022461 12.56923828-17.72929687 0.13535156-35.46826172-0.06240234-53.19667969 0.13535156-4.75576172 0.05361328-6.36416016-1.88701172-6.59794921-6.37646484-0.69257813-13.35849609-0.42626953-13.76191406 12.61318359-13.7671875 9.61347656-0.00175781 19.22958984-0.14677734 28.83955078 0.05712891 4.14492187 0.08876953 5.66455078-1.39658203 5.62939453-5.56347657-0.14941406-16.66318359-0.19423828-33.32988281 0.01494141-49.99042968 0.05800781-4.75048828-2.025-5.60917969-6.17080078-5.57402344-19.01162109 0.15380859-38.03115234-0.11865234-57.03925782 0.17402344-6.21123047 0.09667969-8.31621094-2.26933594-8.29423828-8.24941407 0.05800781-17.14482422 0.12919922-14.21103516 14.08623047-14.25058593 33.54169922-0.09580078 67.08603516-0.03691406 100.62597656-0.02373047 8.66865234 0.00263672 8.75830078 0.11865234 8.79345704 8.49990234 0.06064453 13.91044922 0.06064453 13.91044922-13.88144532 13.91572266z" fill="#FF6100" p-id="3459"></path><path d="M160.57021484 593.76201172c-4.89902344 0.16962891-9.80947266 0.04394531-14.71289062 0.04394531-0.00615234-0.16435547-0.02373047-0.33134766-0.03427734-0.49833984-6.49951172 0.50537109-15.52324219-1.34560547-18.79804688 2.16914062-3.38115234 3.62373047-1.17685547 12.46376953-1.41503906 19.02216797-0.00615234 0.21445313 0.01845703 0.42626953 0.00263672 0.63896484-0.29794922 3.58242188 1.43964844 4.93945313 4.92099609 4.9078125 10.02041016-0.09228516 20.04521484-0.06679687 30.06650391-0.02548828 3.61142578 0.00615234 5.55908203-1.28759766 5.41757812-5.26728515-0.18632813-5.32441406-0.20830078-10.66816406 0.00351563-15.99082032 0.16347656-4.08427734-1.82197266-5.12138672-5.45449219-4.99570312z" fill="#FF6100" p-id="3460"></path></svg>