<?xml version="1.0" standalone="no"?><!DOCTYPE svg PUBLIC "-//W3C//DTD SVG 1.1//EN" "http://www.w3.org/Graphics/SVG/1.1/DTD/svg11.dtd"><svg t="1550733787646" class="icon" style="" viewBox="0 0 1024 1024" version="1.1" xmlns="http://www.w3.org/2000/svg" p-id="4372" xmlns:xlink="http://www.w3.org/1999/xlink" width="320" height="320"><defs><style type="text/css"></style></defs><path d="M701.76992187 273.37958984C753.02861328 293.75878906 793.51542969 336.34179687 811.18144531 389.39257812c-12.88212891-2.99179688-26.0859375-4.20732422-39.88300781-4.20732421-24.57421875 0-47.94785156 4.52285156-69.53027344 13.18535156V273.37958984h0.00175781z m1e-8 477.5616211c21.58154297 8.70205078 45.55371094 13.48242188 70.44169921 13.48242187C876.55888672 764.42275391 962 679.28222656 962 574.65722656V258.99541016L821.67119141 118.97070312v316.29638672h-0.59765625c0.28388672 4.47275391 0.59765625 8.97714844 0.59765625 13.4859375v0.59853516c0 80.05957031-49.74257813 148.4015625-119.90654297 176.58984375v125.00068359h0.00527344v-0.0008789zM581.51181641 574.07714844v0.58007812c0 104.625-85.09042969 189.76552734-189.47285157 189.76552735-24.85458984 0-48.54638672-4.78388672-70.12353515-13.48242188v-125.30566406c69.88095703-27.88769531 119.62353516-96.53027344 119.62353515-176.28837891v-0.59765625c0.31464844-104.04931641 85.43583984-189.17138672 189.75146485-189.17138672 24.88974609 0 48.58242188 4.78828125 70.47949218 13.80234375v124.99101563c-70.16572266 27.88154297-119.90830078 96.23232422-119.90830078 175.70654297h-0.3515625 0.00175782z m120.25810547 51.85371094c-21.89707031 8.37509766-45.27597656 13.18535156-69.84580079 13.18535156-13.76455078 0-27-1.49414063-39.91992187-4.19414063 17.70908203 52.73525391 58.15810547 95.33671875 109.77011719 116.015625v-125.00683593h-0.00439453z m-379.85449219-227.56025391c21.57714844-8.37949219 45.27333984-13.18535156 70.12353515-13.18535156 13.51757813 0 26.68447266 1.21640625 39.60439454 4.20732421-17.67128906-53.05429688-58.15722656-95.63378906-109.73232422-116.31533203v125.29335938h0.00439453z m0 352.57060547c-51.57421875-20.38183594-92.025-63.28476562-110.01621094-116.015625 12.88388672 2.70087891 26.0859375 4.19501953 39.85224609 4.19501953 24.60585938 0 48.26689453-4.80498047 70.16396485-13.48242188v125.30302735z m0-477.86396485c-21.89707031-8.71171875-45.55810547-13.5-70.16396485-13.5C147.12646484 259.57724609 62 344.69931641 62 449.34628906v315.69345703L202.32441406 905.02929688V588.753125h0.28300782c-0.28300781-4.22666016-0.28300781-8.69501953-0.28300782-13.22226562v-0.87626954c0-79.75898437 49.42705078-148.09042969 119.59277344-176.2875V273.07724609h-0.00175781z" fill="#2C5082" p-id="4373"></path></svg>