<?xml version="1.0" standalone="no"?><!DOCTYPE svg PUBLIC "-//W3C//DTD SVG 1.1//EN" "http://www.w3.org/Graphics/SVG/1.1/DTD/svg11.dtd"><svg t="1550562938674" class="icon" style="" viewBox="0 0 1024 1024" version="1.1" xmlns="http://www.w3.org/2000/svg" p-id="4352" xmlns:xlink="http://www.w3.org/1999/xlink" width="320" height="320"><defs><style type="text/css"></style></defs><path d="M512 62C263.27272695 62 62 263.27272695 62 512s201.27272695 450 450 450 450-201.27272695 450-450S760.72727305 62 512 62z m184.90909131 563.72727305c-6.54545479 8.18181826-23.72727305-1.63636348-36.81818262-28.63636436-3.27272695 12.27272695-11.45454521 31.90909131-30.27272695 56.4545461 31.09090869 7.36363653 39.27272695 37.63636347 29.45454521 54-7.36363653 11.45454521-23.72727305 21.27272695-52.36363564 21.27272695-51.54545479 0-73.63636348-13.90909131-84.27272784-23.72727305-1.63636348-2.45454521-4.90909131-3.27272695-9-3.27272695-4.09090869 0-6.54545479 0.81818174-9 3.27272695-9.81818174 9.81818174-32.72727305 23.72727305-84.27272695 23.72727305-28.63636347 0-45.81818174-9.81818174-52.36363652-21.27272695-10.63636347-16.36363653-1.63636348-46.63636348 29.45454521-54-18-24.54545479-26.18181826-44.18181826-30.27272695-56.4545461-12.27272695 27-30.27272695 37.63636347-36.81818174 28.63636436-4.90909131-7.36363653-7.36363653-22.90909131-6.54545478-33.54545479 3.27272695-40.90909131 30.27272695-75.27272695 46.63636347-93.27272695-2.45454521-4.90909131-7.36363653-35.18181826 13.09090958-55.63636436v-1.63636348c0-81 57.27272695-139.09090869 130.09090868-139.09090868 72 0 130.09090869 58.09090869 130.09090958 139.09090868v1.63636348c20.45454521 20.45454521 15.54545479 50.72727305 13.09090869 55.63636436 15.54545479 18 43.36363653 52.36363653 46.63636347 93.27272695 0.81818174 10.63636347-0.81818174 26.18181826-6.5454539 33.54545479z" fill="#30A5DD" p-id="4353"></path></svg>