<?xml version="1.0" standalone="no"?><!DOCTYPE svg PUBLIC "-//W3C//DTD SVG 1.1//EN" "http://www.w3.org/Graphics/SVG/1.1/DTD/svg11.dtd"><svg t="1550649589317" class="icon" style="" viewBox="0 0 1024 1024" version="1.1" xmlns="http://www.w3.org/2000/svg" p-id="2993" xmlns:xlink="http://www.w3.org/1999/xlink" width="320" height="320"><defs><style type="text/css"></style></defs><path d="M769.14 962H254.86a77.23 77.23 0 0 1-77.15-77.14V267.71a77.24 77.24 0 0 1 77.15-77.14h514.28a77.24 77.24 0 0 1 77.15 77.14v617.15A77.23 77.23 0 0 1 769.14 962zM254.86 242a25.74 25.74 0 0 0-25.72 25.71v617.15a25.74 25.74 0 0 0 25.72 25.71h514.28a25.74 25.74 0 0 0 25.72-25.71V267.71A25.74 25.74 0 0 0 769.14 242z" fill="#06C1AE" p-id="2994"></path><path d="M280.57 756.29l462.86 0 0 51.43-462.86 0 0-51.43Z" fill="#06C1AE" p-id="2995"></path><path d="M280.57 576.29l462.86 0 0 51.43-462.86 0 0-51.43Z" fill="#06C1AE" p-id="2996"></path><path d="M280.57 396.29l462.86 0 0 51.43-462.86 0 0-51.43Z" fill="#06C1AE" p-id="2997"></path><path d="M614.86 164.86c0-42.61-46.05-77.15-102.86-77.15s-102.86 34.54-102.86 77.15h-38.5a12.92 12.92 0 0 0-12.93 12.92v77a13 13 0 0 0 13 13h282.61a13 13 0 0 0 13-13v-77a12.92 12.92 0 0 0-12.93-12.92z" fill="#82E0D6" p-id="2998"></path><path d="M653.33 293.43H370.67A38.72 38.72 0 0 1 332 254.76v-77a38.68 38.68 0 0 1 38.63-38.65h16.87C401.81 94.83 452.2 62 512 62s110.19 32.83 124.5 77.14h16.87A38.68 38.68 0 0 1 692 177.79v77a38.72 38.72 0 0 1-38.67 38.64zM383.43 242h257.14v-51.43h-51.43v-25.71c0-27.88-35.33-51.43-77.14-51.43s-77.14 23.57-77.14 51.43v25.71h-51.43z" fill="#06C1AE" p-id="2999"></path></svg>