<?xml version="1.0" standalone="no"?><!DOCTYPE svg PUBLIC "-//W3C//DTD SVG 1.1//EN" "http://www.w3.org/Graphics/SVG/1.1/DTD/svg11.dtd"><svg t="1550649595762" class="icon" style="" viewBox="0 0 1024 1024" version="1.1" xmlns="http://www.w3.org/2000/svg" p-id="3110" xmlns:xlink="http://www.w3.org/1999/xlink" width="320" height="320"><defs><style type="text/css"></style></defs><path d="M900.394 571.606H496.676a2.474 2.474 0 0 0-2.474 2.474v297.427a2.474 2.474 0 0 0 2.474 2.474h403.718a2.474 2.474 0 0 0 2.473-2.474V574.079a2.472 2.472 0 0 0-2.473-2.473zM443.119 151.639c78.129-39.57 136.222 0 136.222 0-34.057-53.755-187.306-50.395-187.306-50.395-163.466 43.676-119.192 251.979-119.192 251.979-3.407 47.036 102.165 201.583 102.165 201.583 0 57.116-136.222 67.195-136.222 67.195-102.165 20.159-119.193 167.987-119.193 167.987C266.03 951.254 409.064 873.98 409.064 873.98 259.22 840.383 238.786 773.188 238.786 773.188 225.165 689.195 357.98 655.599 357.98 655.599c139.627-6.72 68.111-201.583 68.111-201.583-67.517-158.688-63.98-261.348 17.028-302.377z" fill="#BCE2FF" p-id="3111"></path><path d="M841.829 587.176c13.993 0 27.933 3.908 27.933 17.305v218.382c0 13.447-3.036 33.597-17.03 33.597H529.206c-13.993 0-17.026-20.15-17.026-33.597V604.481c0-13.398 4.085-17.305 18.075-17.305h311.574m10.904-49.89H529.206c-43.666 0-68.111 25.201-68.111 67.195v302.375c0 41.99 24.445 0 68.111 0h306.499c43.664 0 85.139-35.899 85.139-77.937V611.521c0-41.995-35.352-76.054-79.015-76.054l10.904 1.819z m-85.139 167.987H614.345c-14.79 0-38.683-1.754-38.683-16.045 0-14.295 23.892-34.35 38.683-34.35h153.248c14.84 0 34.057 19.302 34.057 33.597-0.001 14.292-19.218 16.798-34.056 16.798l8.785 9.764-8.785-9.764z m-52.205 101.664H602.464c-14.79 0-26.801-11.561-26.801-25.854 0-14.247 12.011-25.859 26.801-25.859h112.925c14.835 0 26.849 11.612 26.849 25.859 0 14.296-12.014 25.854-26.849 25.854zM381.232 921.486c-2.066 0-4.128-0.286-6.287-0.848-2.54-0.662-72.87 8.772-134.848-16.988-91.927-38.214-136.582-73.55-136.582-115.49 0-25.476 15.868-113.982 47.188-133.895 21.131-13.446 50.097-25.904 86.011-37.086 38.977-12.125 77.474-20.094 100.103-24.253v-43.024c-33.951-34.248-58.031-71.241-73.615-112.755-15.407-41.096-22.913-81.057-22.913-137.155 0-129.08 72.864-199.469 196.725-199.469 64.885 0 118.458 22.503 154.935 65.006 32.727 38.077 48.077 78.934 48.077 138.807 0 111.486-57.232 180.176-59.668 183.01-8.362 9.858-23.434 11.318-33.666 3.301-10.19-8.068-11.74-22.552-3.378-32.367 0.276-0.379 12.534-15.284 24.597-41.517 11.081-24.154 24.321-63.269 24.321-112.424 0-39.585-9.44-157.77-155.22-157.77-50.614 0-88.599 14.485-112.962 43.127-22.635 26.56-35.967 61.234-35.967 110.301 0 103.276 25.963 163.053 89.532 224.287 4.508 4.296 6.996 10.145 6.996 16.277v71.615c0 11.376-8.54 21.044-20.183 22.794-0.615 0.092-86.443 22.313-142.316 39.773-73.474 22.929-70.751 98.741-70.751 113.417 0 15.474 28.169 40.099 107.327 73.08 58.782 24.481 128.227 14.814 128.832 14.954 12.73 3.35 20.284 15.989 16.815 28.309-2.91 10.187-12.58 16.983-23.103 16.983z" fill="#20A0FF" p-id="3112"></path></svg>