<?xml version="1.0" standalone="no"?><!DOCTYPE svg PUBLIC "-//W3C//DTD SVG 1.1//EN" "http://www.w3.org/Graphics/SVG/1.1/DTD/svg11.dtd"><svg t="1550562803921" class="icon" style="" viewBox="0 0 1024 1024" version="1.1" xmlns="http://www.w3.org/2000/svg" p-id="4233" xmlns:xlink="http://www.w3.org/1999/xlink" width="320" height="320"><defs><style type="text/css"></style></defs><path d="M671.1875 359.60029297c10.35 0 20.51279297 0.74970703 30.75029297 1.87470703-27.5625-128.32470703-164.73779297-223.68779297-321.37558594-223.68779297C205.4375 137.78808594 62 257.11279297 62 408.68720703c0 87.48808594 47.7 159.3 127.4625 215.1L157.625 719.60029297l111.375-55.8c39.825 7.79941406 71.775 15.89941406 111.56220703 15.89941406 10.0125 0 19.87558594-0.45 29.7-1.16191406a238.79970703 238.79970703 0 0 1-9.86220703-66.825c0.07470703-139.1625 119.54970703-252.1125 270.7875-252.1125zM499.9625 273.23632812c24.075 0 39.86279297 15.82558594 39.86279297 39.75029297 0 23.88779297-15.78779297 39.86279297-39.86279297 39.86279297-23.81220703 0-47.77470703-15.975-47.77470703-39.825 0-24.00029297 23.92470703-39.75029297 47.77470703-39.75029297z m-222.93720703 79.61308594c-23.88779297 0-47.96279297-15.975-47.96279297-39.825 0-24.00029297 24.075-39.75029297 47.99970703-39.75029297 23.88779297 0 39.75029297 15.75 39.75029297 39.75029297 0 23.85-15.8625 39.825-39.75029297 39.825z" fill="#48BD1C" p-id="4234"></path><path d="M962 607.88779297C962 480.53779297 834.5375 376.73632812 691.39970703 376.73632812c-151.61220703 0-270.9 103.87529297-270.9 231.15058594 0 127.6875 119.32558594 231.11191406 270.86308594 231.11191406 31.725 0 63.74970703-7.91191406 95.58720703-15.89941406l87.37470703 47.925-23.99941406-79.65C914.33691406 743.33691406 962 679.69970703 962 607.88779297zM603.50029297 567.98632813c-15.78779297 0-31.80058594-15.75-31.80058594-31.8375 0-15.8625 16.01279297-31.8375 31.80058594-31.83750001 24.22441406 0 39.89970703 15.975 39.89970703 31.87529297 0 16.04970703-15.67529297 31.79970703-39.86279297 31.79970703z m175.23720703 0c-15.67529297 0-31.68720703-15.75-31.68720703-31.8375 0-15.8625 15.93720703-31.8375 31.68720703-31.83750001 23.9625 0 39.89970703 15.975 39.89970703 31.87529297 0 16.04970703-15.93720703 31.79970703-39.89970703 31.79970703z" fill="#48BD1C" p-id="4235"></path></svg>