<?xml version="1.0" standalone="no"?><!DOCTYPE svg PUBLIC "-//W3C//DTD SVG 1.1//EN" "http://www.w3.org/Graphics/SVG/1.1/DTD/svg11.dtd"><svg t="1550733759195" class="icon" style="" viewBox="0 0 1024 1024" version="1.1" xmlns="http://www.w3.org/2000/svg" p-id="3798" xmlns:xlink="http://www.w3.org/1999/xlink" width="320" height="320"><defs><style type="text/css"></style></defs><path d="M146.3 561.8l-4.3 24.6h129.9l5.8-24.6H146.3z m330.4 24.5l4.3-24.6H333.8l-5.8 24.6h148.7z m82.2-124.1l-20.2 99.6-5.7 24.6-20.2 99.5H307.9l-4.3 23.1H543l31.8-147.2 20.2-99.6h287.1l-21.6 99.6H631.1l-52 246.7H281.9l-4.3 23.1h333.3l31.7-145.7 20.2-99.5h193.3l-20.2 99.5H698.8l-30.3 145.7-21.6 99.6H199.6l51.9-245.3H64l21.6-99.5 4.3-24.6 21.6-99.6h186.1l51.9-245.3h204.9l26-124.1H960l-21.6 99.5H615.2l-4.3 24.5-20.2 99.6h-205l-5.8 23.1h240.9l4.3-23.1 21.7-99.6H934l-21.6 99.6H682.9l-26 122.7H359.8l-5.8 23.1h204.9z" fill="#006F46" p-id="3799"></path></svg>