<?xml version="1.0" standalone="no"?><!DOCTYPE svg PUBLIC "-//W3C//DTD SVG 1.1//EN" "http://www.w3.org/Graphics/SVG/1.1/DTD/svg11.dtd"><svg t="1550562787299" class="icon" style="" viewBox="0 0 1025 1024" version="1.1" xmlns="http://www.w3.org/2000/svg" p-id="4002" xmlns:xlink="http://www.w3.org/1999/xlink" width="320.3125" height="320"><defs><style type="text/css"></style></defs><path d="M962 690.9536l0-443.0912c0-95.54986667-77.48266667-173.06346667-173.06346667-173.06346667l-553.87413333 0c-95.54986667 0-173.06346667 77.48266667-173.06346667 173.06346667l0 553.87413333c0 95.54986667 77.48266667 173.06346667 173.06346667 173.06346667l553.87413333 0c85.1552 0 155.98293333-61.54026667 170.38826667-142.5856-45.87733333-19.73653333-244.84266667-105.632-348.43626667-155.18186667-78.83626667 95.50826667-161.43146667 152.81493333-285.92853333 152.81493334-124.49706667 0-207.57546667-76.58453333-197.55946667-170.4864 6.57386667-61.632 48.832-162.2528 232.29333334-144.94613334 96.6944 9.12213333 140.9728 27.15946667 219.9072 53.14346667 20.28373333-37.38133333 37.31093333-78.55253333 50.0928-122.3744l-349.61173334 0 0-34.61546667 172.95253334 0 0-62.3072-211.00693334 0 0-38.0768 211.00693334 0 0-89.76106666c0 0 1.98826667-14.08533333 17.42826666-14.08533334l86.53866667 0 0 103.8464 224.99946667 0 0 38.0768-225.00053334 0 0 62.3072 183.46133334 0c-16.82026667 68.7328-42.36586667 131.78346667-74.44586667 186.9632 53.36533333 19.2512 295.984 93.42186667 295.984 93.42186667 0 0 0 0 0 0zM311.23093333 770.56746667c-131.5392 0-152.3072-83.07733333-145.38453333-117.6928s45.00053333-79.616 118.12586667-79.616c84.08853333 0 159.2704 21.45493333 249.6352 65.4688-63.3856 82.60266667-141.41333333 131.84-222.37546667 131.84z" fill="#1296db" p-id="4003"></path></svg>