<?xml version="1.0" standalone="no"?><!DOCTYPE svg PUBLIC "-//W3C//DTD SVG 1.1//EN" "http://www.w3.org/Graphics/SVG/1.1/DTD/svg11.dtd"><svg t="1550733774667" class="icon" style="" viewBox="0 0 1024 1024" version="1.1" xmlns="http://www.w3.org/2000/svg" p-id="4030" xmlns:xlink="http://www.w3.org/1999/xlink" width="320" height="320"><defs><style type="text/css"></style></defs><path d="M500.56455342 61.98714425l-11.31331641 1.0541953-22.79376035 1.02848292-22.79376035 3.111162-11.35188457 2.0569667-11.40330762 2.06982247-10.34911318 2.05696669-11.32617217 3.11116201-20.69822549 6.22232315-20.72393789 6.18375586-20.67251396 8.26643408-19.65688682 9.33348603-19.64403018 10.34911319-9.33348603 5.14241632-9.29491788 5.18098446-9.29491698 6.22232402-9.35919844 5.15527208-17.56135107 13.4345628-8.22786681 6.22232401-9.3463418 6.22232314-15.51724101 14.45019083-15.49152949 15.55580917-8.29214648 7.19938302-7.21223877 8.30500224-7.25080694 7.22509541-7.27651934 8.29214562-12.40607898 17.57420858-13.40885129 17.59992011-11.40330849 18.58983487-5.18098447 9.33348515-5.16812784 9.29491787-10.34911318 19.66974258-9.30777363 19.66974258-7.21223877 20.67251397-7.21223877 20.67251397-6.24803643 20.69822548-5.19384023 21.72670928-4.1139334 22.75519219-3.09830537 22.72948066-1.05419531 22.78090459L62.01928585 511.93571943v11.41616426l1.00277138 11.35188457 1.05419531 23.78367599 3.11116201 21.72670838 2.05696582 11.39045274 2.0569667 11.37759609 2.06982246 10.34911317 3.11116201 11.37759611 6.24803643 20.68536973 7.21223877 21.72670927 7.21223877 19.65688683 9.30777363 20.67251307 10.34911318 18.60269151 5.16812784 10.37482471 5.18098447 9.26920547 6.22232402 9.33348604 5.18098447 8.26643408 13.40885129 17.61277587 6.22232313 9.30777364 6.18375586 8.27929071 14.52732627 16.54572481 15.50438525 15.50438526 7.25080693 7.22509453 8.24072257 7.23795116 7.27651933 7.25080695 8.24072168 7.23795117 17.5742086 13.43456279 17.56135107 12.40607988 18.65411542 11.41616426 9.29491788 5.15527207 9.33348603 6.22232402 19.64403018 9.3206294 19.65688682 9.26920546 20.67251396 8.27929072 20.71108125 7.2636627 20.69822637 5.14241631 21.68814111 5.19384111 22.75519219 4.12678916 22.79376035 3.11116202L489.22552549 961.92286367h41.33217129l17.57420771-1.05419531 17.56135195-2.0569667 9.35919757-1.02848291 8.29214648-1.0541953 17.54849619-3.08544962 16.5457248-4.15250156 17.58706349-4.11393341 16.58429296-5.18098446 15.50438525-6.19661163 16.52001241-6.24803555 15.54295342-6.18375586 15.51724189-7.25080693 15.51724101-8.26643408 14.46304658-8.26643496 14.48875812-9.30777364 13.46027431-9.32062938 13.4345628-10.3491132 13.43456279-10.33625654 12.40607987-11.37759609 12.45750294-11.37759609 12.40607988-12.40607988 11.32617217-11.3775961 11.4033085-13.43456279 10.36196894-13.4602752 9.29491699-13.43456279 10.34911318-13.46027432 8.27929073-14.4630457 9.29491699-15.5172419 7.23795117-14.52732626 7.22509541-15.50438525 7.23795029-15.4915295 6.22232402-16.5457248h-63.09744873l9.30777364 21.71385351-97.23023701 141.68642696H252.31440342L147.87192676 699.18395557 377.48081797 106.48190146l130.33454239 310.30625919L631.92757959 103.37073945l118.93123388 278.2304376H943.30088985l-6.20946739-16.5457248-6.19661162-17.57420772-6.20946826-16.53286904-8.30500225-15.517241-7.23795117-16.58429298-9.28206123-15.47867286-9.29491787-14.4887581-9.3463418-14.48875811-11.35188369-14.46304658-5.16812871-7.26366269-5.19384024-7.2250954-11.40330849-13.46027433-12.40607901-12.43179141-12.40607987-12.40607988-13.4345628-12.406079-13.40885039-11.37759698-13.49884336-10.33625654-14.42447755-10.34911318-14.54018202-10.32340078-15.5172419-9.3206294-15.51724101-8.27929072-15.49152949-8.26643409-16.53286905-7.25080693-16.54572392-7.21223876-8.27929072-3.13687442-8.29214649-3.11116201-17.59992012-5.15527207-17.57420771-5.16812871L605.05845401 71.30777363 586.41719434 68.20946738 568.81727422 65.08544961 550.25315175 64.0569667l-19.66974257-2.08267911h-30.01885576zM474.69819922 694.00297109h249.30434531l-127.23623701-308.24929247L474.69819922 694.00297109z m-255.46238877 0H468.52729913l-127.23623702-308.24929247-122.0681083 308.24929247z m541.98497197-287.57677939l8.27929073 18.62840391h184.16278564l-4.16535733-18.62840391H761.22078242z m18.62840391 43.4405628l7.23795029 18.62840303h172.73376651l-2.03125518-18.64125967H779.84918633z m18.62840302 43.45341767l7.2636627 18.6026915h156.1623293v-18.58983486H798.47758935z m17.58706348 43.42770616l8.30500313 18.64125966h135.45124717l2.08267822-18.64125966H816.06465283z m18.60269151 43.45341856l8.30500224 18.64125965h110.69051221l3.04688233-18.64125965H834.66734434z m18.62840303 43.45341854l8.29214648 17.58706348h81.71299598l5.19384112-17.59991924h-95.19898358z" fill="#E50112" p-id="4031"></path></svg>