<?xml version="1.0" standalone="no"?><!DOCTYPE svg PUBLIC "-//W3C//DTD SVG 1.1//EN" "http://www.w3.org/Graphics/SVG/1.1/DTD/svg11.dtd"><svg t="1550733754954" class="icon" style="" viewBox="0 0 1027 1024" version="1.1" xmlns="http://www.w3.org/2000/svg" p-id="3684" xmlns:xlink="http://www.w3.org/1999/xlink" width="320.9375" height="320"><defs><style type="text/css"></style></defs><path d="M511.325 63.8s195.975-16.65 348.525 161.1c0 0 98.775 108 104.625 266.4 0 0 8.325 119.475-46.575 221.625-54.675 102.15-114.525 156.15-212.4 204.975-97.875 49.05-255.6 55.575-359.325 7.425-103.725-48.15-167.625-98.775-228.15-208.35 0 0-81.45-139.5-42.3-301.275 0 0 9.9-96.3 97.875-200.925 0 0 128.7-157.725 337.725-150.975z" fill="#B81C22" p-id="3685"></path><path d="M560.375 163.25s103.725 8.325 187.65 85.5c83.925 77.175 105.525 154.35 114.525 195.975 9.225 41.4 15.75 160.2-50.625 261.45s-192.6 147.825-251.55 152.775v-162.675h78.075s83.025-16.65 87.975-102.825V419.75s-13.275-87.075-105.525-91.35h-60.525V163.25zM469.025 163.25v165.15h-69.75s-94.725 5.85-97.875 110.475v152.775s2.475 93.825 100.35 104.625h67.275v162.675s-164.25-9.225-254.925-166.725c0 0-78.075-111.15-45.675-249.75 32.4-138.6 108-194.175 122.85-208.35 15.075-14.4 111.825-71.775 177.75-70.875z" fill="#FFFFFF" p-id="3686"></path><path d="M408.5 422.225h204.975s17.325-3.375 19.125 15.75v141.975s4.05 22.5-12.375 19.125h-207.45s-16.65 4.05-19.125-14.85v-146.025c-0.225-0.225 2.475-15.975 14.85-15.975z" fill="#FFFFFF" p-id="3687"></path></svg>