<?xml version="1.0" standalone="no"?><!DOCTYPE svg PUBLIC "-//W3C//DTD SVG 1.1//EN" "http://www.w3.org/Graphics/SVG/1.1/DTD/svg11.dtd"><svg t="1550733736375" class="icon" style="" viewBox="0 0 1024 1024" version="1.1" xmlns="http://www.w3.org/2000/svg" p-id="3228" xmlns:xlink="http://www.w3.org/1999/xlink" width="320" height="320"><defs><style type="text/css"></style></defs><path d="M602 339.49999971v543.75000029c26.25000029-7.49999971 52.49999971-15.00000029 74.99999971-26.25000029V234.50000029c-7.49999971 3.75000029-22.5 11.25-37.49999942 22.5-22.5 18.74999971-37.50000029 45-37.50000029 82.49999942M380.75000029 253.25c-11.25-11.25-29.99999971-18.74999971-37.50000029-22.5v622.50000029c22.5 11.25 48.75000029 22.5 74.99999971 26.24999942V339.49999971c0-37.50000029-11.25-63.74999971-37.49999942-86.24999971" fill="#D7000F" p-id="3229"></path><path d="M665.74999971 159.49999971c-48.75000029-22.5-101.25-33.75-153.74999971-33.75s-105.00000029 11.25-150.00000029 33.75c-7.49999971 3.75000029-18.74999971 7.49999971-18.74999971 22.5 0 18.74999971 26.25000029 15.00000029 63.74999971 45 33.75 22.5 48.75000029 60.00000029 48.75000029 101.25v562.5c18.74999971 3.75000029 37.50000029 3.75000029 56.25 3.75000029s37.50000029 0 56.25-3.75000029v-562.5c0-41.24999971 18.74999971-78.75 48.75000029-104.99999942 33.75-26.25000029 63.74999971-22.5 63.74999971-45 0-7.49999971-11.25-15.00000029-15.00000029-18.75000058" fill="#D7000F" p-id="3230"></path><path d="M512 924.49999971C283.24999971 924.49999971 99.50000029 737 99.50000029 512S283.24999971 99.50000029 512 99.50000029s412.49999971 183.75000029 412.49999971 412.49999971-183.75000029 412.49999971-412.49999971 412.49999971m0-862.49999971C264.5 62 62 264.5 62 512s202.5 450 450 450 450-202.5 450-450S759.5 62 512 62" fill="#D7000F" p-id="3231"></path><path d="M129.5 512c0 135 71.25000029 254.99999971 180 322.49999971v-292.5c-45 0-60.00000029 26.25000029-63.74999971 37.50000029-3.75000029 7.49999971-7.49999971 18.74999971-15.00000029 18.74999971-11.25 0-22.5-37.50000029-22.5-82.49999942s11.25-82.50000029 22.5-82.50000029c7.49999971 0 11.25 7.49999971 15.00000029 18.74999971 3.75000029 11.25 22.5 37.50000029 63.74999971 37.50000029v-299.99999971C200.75000029 253.25 129.5 373.24999971 129.5 512m704.99999971 67.5c-3.75000029 7.49999971-7.49999971 18.74999971-14.99999942 18.74999971-11.25 0-22.5-37.50000029-22.5-82.49999942s11.25-82.50000029 22.5-82.50000029c7.49999971 0 11.25 7.49999971 14.99999942 18.74999971 3.75000029 11.25 18.74999971 33.75 63.75000058 37.50000029-7.49999971-127.50000029-74.99999971-236.25-176.25000058-299.99999971v648.74999971c97.49999971-63.74999971 168.75-172.50000029 176.25000058-292.5-45 0-60.00000029 22.5-63.75000058 33.75" fill="#D7000F" p-id="3232"></path></svg>