<?xml version="1.0" standalone="no"?><!DOCTYPE svg PUBLIC "-//W3C//DTD SVG 1.1//EN" "http://www.w3.org/Graphics/SVG/1.1/DTD/svg11.dtd"><svg t="1542368983889" class="icon" style="" viewBox="0 0 1024 1024" version="1.1" xmlns="http://www.w3.org/2000/svg" p-id="2760" xmlns:xlink="http://www.w3.org/1999/xlink" width="200" height="200"><defs><style type="text/css"></style></defs><path d="M727.771429 844.8l146.285714 76.8-142.628572-391.314286c-7.314286-18.285714-29.257143-29.257143-47.542857-21.942857l-138.971428 51.2c-18.285714 7.314286-29.257143 29.257143-21.942857 47.542857l142.628571 391.314286 62.171429-153.6zM299.885714 844.8l62.171429 153.6 142.628571-391.314286c7.314286-18.285714-3.657143-40.228571-21.942857-47.542857l-138.971428-51.2c-18.285714-7.314286-40.228571 3.657143-47.542858 21.942857l-142.628571 391.314286 146.285714-76.8z" fill="#EF4B4B" p-id="2761"></path><path d="M512 778.971429l-175.542857 10.971428-95.085714-142.628571-120.685715-128 51.2-168.228572 25.6-171.885714 164.571429-62.171429 149.942857-91.428571 149.942857 91.428571 164.571429 62.171429 25.6 171.885714 51.2 168.228572-120.685715 128-95.085714 142.628571z" fill="#FFE034" p-id="2762"></path><path d="M512 683.885714c142.628571 0 256-113.371429 256-256s-113.371429-256-256-256-256 113.371429-256 256 113.371429 256 256 256z" fill="#E9B92F" p-id="2763"></path><path d="M581.485714 256v318.171429h-87.771428V365.714286c-14.628571 10.971429-29.257143 18.285714-40.228572 25.6s-29.257143 14.628571-51.2 18.285714v-73.142857c29.257143-10.971429 51.2-21.942857 69.485715-32.914286s29.257143-29.257143 40.228571-51.2h69.485714z" fill="#FFF09A" p-id="2764"></path></svg>